<?xml version="1.0" standalone="no"?>
<!DOCTYPE svg PUBLIC "-//W3C//DTD SVG 1.1//EN" "http://www.w3.org/Graphics/SVG/1.1/DTD/svg11.dtd" >
<svg>
<metadata>
Created by FontForge 20090914 at Tue Apr 27 07:41:03 2021
 By www-data
Copyright (c) 2016 by Iulian Maftei All rights reserved.
</metadata>
<defs>
<font id="MoskMedium500" horiz-adv-x="625" >
  <font-face 
    font-family="Mosk Medium 500"
    font-weight="500"
    font-stretch="normal"
    units-per-em="1000"
    panose-1="2 0 6 6 0 0 0 2 0 4"
    ascent="800"
    descent="-200"
    x-height="484.999"
    cap-height="680"
    bbox="-53 -230.002 1228 926"
    underline-thickness="50"
    underline-position="-75"
    unicode-range="U+0020-U+FB02"
  />
<missing-glyph horiz-adv-x="230" 
 />
    <glyph glyph-name=".notdef" horiz-adv-x="230" 
 />
    <glyph glyph-name="space" unicode=" " horiz-adv-x="230" 
 />
    <glyph glyph-name="exclam" unicode="!" horiz-adv-x="181" 
d="M128 196l-73 34l-17 472h105zM30 60c0 16.667 6 30.834 18 42.501s26.333 17.5 43 17.5s30.834 -5.83301 42.501 -17.5s17.5 -25.834 17.5 -42.501s-5.83301 -30.834 -17.5 -42.501s-25.834 -17.5 -42.501 -17.5s-31 5.83301 -43 17.5s-18 25.834 -18 42.501z" />
    <glyph glyph-name="quotedbl" unicode="&#x22;" horiz-adv-x="350" 
d="M32 661c0 14.667 6.16699 28.502 18.5 41.502s26.5 19.5 42.5 19.5c16.667 0 31.167 -6.83301 43.5 -20.5s18.5 -30.834 18.5 -51.501c0 -34 -10.833 -68.333 -32.5 -103s-48.167 -60.334 -79.5 -77.001l-23 45c18.667 14.667 33 28.167 43 40.5s16 27.5 18 45.5
c-12 0.666992 -23.167 7.16699 -33.5 19.5s-15.5 25.833 -15.5 40.5zM198 661.002c0 14.667 6.16602 28.5 18.499 41.5s26.5 19.5 42.5 19.5c16.667 0 31 -6.66699 43 -20s18 -30.666 18 -51.999c0 -34 -10.667 -68.333 -32 -103s-47.666 -60.334 -78.999 -77.001l-24 45
c18.667 14 33 27.333 43 40s16.667 28 20 46c-12.667 0.666992 -24.167 7.16699 -34.5 19.5s-15.5 25.833 -15.5 40.5z" />
    <glyph glyph-name="numbersign" unicode="#" horiz-adv-x="540" 
d="M365 389l28 122l82 -2l-28 -120h55l8 -73h-80l-29 -122h101l8 -73h-126l-29 -128l-80 5l28 123h-128l-30 -128l-80 5l28 123h-54l-9 73h80l28 122h-99l-9 73h126l29 122l81 -2l-29 -120h128zM319 194l29 122h-127l-29 -122h127z" />
    <glyph glyph-name="dollar" unicode="$" horiz-adv-x="518" 
d="M443 651l-31.998 -76.0049c-23.333 11.333 -45.5 20.166 -66.5 26.499s-45.833 9.5 -74.5 9.5c-40 0 -72.333 -7.66699 -97 -23s-37 -37.333 -37 -66c0 -22 6.33301 -41.167 19 -57.5s30.667 -31.166 54 -44.499s57.666 -30.333 102.999 -51
c60.667 -27.333 105.167 -55.666 133.5 -84.999s42.5 -67.333 42.5 -114c0 -38 -10.833 -71.333 -32.5 -100s-52.5 -50 -92.5 -64v-125h-68v109c-16 -2 -31.333 -3 -46 -3h-16v-106h-67v115c-46.667 10 -84.667 23.667 -114 41l22 76
c21.333 -11.333 47.666 -21.333 78.999 -30s61 -13 89 -13c47.333 0 84 8.83301 110 26.5s39 41.5 39 71.5c0 21.333 -6.5 40.166 -19.5 56.499s-31.5 31.333 -55.5 45s-57.333 29.834 -100 48.501c-42 18.667 -75.5 36.834 -100.5 54.501s-43.833 38.334 -56.5 62.001
s-19 52.167 -19 85.5c0 36.667 11 69.334 33 98.001s53 49.667 93 63v113l67 10v-108h17c15.333 0 30.333 -0.666992 45 -2v100l68 10v-122c30 -9.33301 56.667 -19.666 80 -30.999z" />
    <glyph glyph-name="percent" unicode="%" horiz-adv-x="885" 
d="M242 0l303 710l95 -4l-303 -710zM191 363c-30 0 -57.168 6.66602 -81.501 19.999s-43.666 32.833 -57.999 58.5s-21.5 55.834 -21.5 90.501c0 33.333 7.33301 63 22 89s34.334 46 59.001 60s51.334 21 80.001 21c46 0 84.333 -15.167 115 -45.5s46 -71.833 46 -124.5
c0 -33.333 -7.33301 -62.833 -22 -88.5s-34.334 -45.5 -59.001 -59.5s-51.334 -21 -80.001 -21zM190.999 628.999c-20.667 0 -38.335 -8.16797 -53.002 -24.501s-22 -40.166 -22 -71.499c0 -32.667 7 -57.167 21 -73.5s32 -24.5 54 -24.5
c20.667 0 38.334 8.16699 53.001 24.5s22 40.5 22 72.5s-7.16699 56.167 -21.5 72.5s-32.166 24.5 -53.499 24.5zM695.998 -0.00195312c-46 0 -84.332 15.167 -114.999 45.5s-46 71.5 -46 123.5c0 33.333 7.33301 62.833 22 88.5s34.167 45.5 58.5 59.5s51.166 21 80.499 21
c46 0 84 -15 114 -45s45 -71.333 45 -124c0 -33.333 -7.33301 -62.833 -22 -88.5s-34.167 -45.5 -58.5 -59.5s-50.5 -21 -78.5 -21zM695.999 265.998c-20.667 0 -38.5 -8.16699 -53.5 -24.5s-22.5 -40.166 -22.5 -71.499c0 -32.667 7.16699 -57.334 21.5 -74.001
s32.5 -25 54.5 -25c20 0 37.333 8.33301 52 25s22 41 22 73c0 30.667 -7.16699 54.5 -21.5 71.5s-31.833 25.5 -52.5 25.5z" />
    <glyph glyph-name="ampersand" unicode="&#x26;" horiz-adv-x="673" 
d="M310 696c30.667 0 59.3301 -3.99902 85.9971 -11.999s54.334 -19 83.001 -33l-33 -76c-4.66699 2 -13.667 6.16699 -27 12.5s-28.5 12.166 -45.5 17.499s-37.833 8 -62.5 8c-30 0 -54.167 -9.33301 -72.5 -28s-27.5 -41 -27.5 -67s7 -49.333 21 -70
s38.333 -46.667 73 -78l185 -172c21.333 45.333 34 100 38 164l82 -32c-4 -76 -20 -141.333 -48 -196l81 -73l-54 -69l-79 73c-51.333 -51.333 -121.333 -77 -210 -77c-49.333 0.666992 -93.5 9.5 -132.5 26.5s-70 42.333 -93 76s-34.5 74.5 -34.5 122.5
c0.666992 40 10.334 77.667 29.001 113s43.667 64.333 75 87c-20 29.333 -30 62.333 -30 99c0 33.333 7.83301 64 23.5 92s38.334 50.333 68.001 67s64.5 25 104.5 25zM299.996 72.001c58 0 105.331 18.333 141.998 55l-196 179
c-17.333 16.667 -31.666 31.334 -42.999 44.001c-19.333 -14.667 -34.666 -33.834 -45.999 -57.501s-17.333 -49.5 -18 -77.5c0 -46.667 15.667 -82.167 47 -106.5s69.333 -36.5 114 -36.5z" />
    <glyph glyph-name="quotesingle" unicode="'" horiz-adv-x="185" 
d="M32 661c0 14.667 6.16699 28.502 18.5 41.502s26.5 19.5 42.5 19.5c16.667 0 31.167 -6.83301 43.5 -20.5s18.5 -30.834 18.5 -51.501c0 -34 -10.833 -68.333 -32.5 -103s-48.167 -60.334 -79.5 -77.001l-23 45c18.667 14.667 33 28.167 43 40.5s16 27.5 18 45.5
c-12 0.666992 -23.167 7.16699 -33.5 19.5s-15.5 25.833 -15.5 40.5z" />
    <glyph glyph-name="parenleft" unicode="(" horiz-adv-x="279" 
d="M141 321c0 -32.667 4.99805 -70.999 14.998 -114.999s23.333 -85.833 40 -125.5s34.334 -69.834 53.001 -90.501l-76 -28c-40 51.333 -70.5 108.5 -91.5 171.5s-31.5 125.167 -31.5 186.5c0 60 10.333 121.167 31 183.5s51.334 120.5 92.001 174.5l76 -27
c-28 -35.333 -53 -86.833 -75 -154.5s-33 -126.167 -33 -175.5z" />
    <glyph glyph-name="parenright" unicode=")" horiz-adv-x="279" 
d="M137 320c0 32.667 -4.99902 70.8311 -14.999 114.498s-23.167 85.334 -39.5 125.001s-33.833 69.834 -52.5 90.501l76 28c39.333 -52 69.666 -109.5 90.999 -172.5s32 -124.833 32 -185.5c0 -58.667 -10.5 -119.167 -31.5 -181.5s-51.5 -121.166 -91.5 -176.499l-76 27
c28 34.667 52.833 86.167 74.5 154.5s32.5 127.166 32.5 176.499z" />
    <glyph glyph-name="asterisk" unicode="*" horiz-adv-x="363" 
d="M144 770h75l1 -107l112 24l21 -65l-112 -22l78 -111l-57 -43l-80 108l-81 -108l-57 43l78 111l-112 22l21 65l111 -24z" />
    <glyph glyph-name="plus" unicode="+" horiz-adv-x="537" 
d="M315 311h182l10 -75h-192v-232l-89 4v228h-188l-8 75h196v223l89 -3v-220z" />
    <glyph glyph-name="comma" unicode="," horiz-adv-x="185" 
d="M33 60c0 16 6 29.999 18 41.999s26 18 42 18c18 0 32.833 -6.66699 44.5 -20s17.5 -30.666 17.5 -51.999c0 -34 -10.667 -68.167 -32 -102.5s-48 -59.833 -80 -76.5l-23 45c19.333 14.667 34 28.167 44 40.5s16 27.5 18 45.5c-12 0.666992 -23.167 7.16699 -33.5 19.5
s-15.5 25.833 -15.5 40.5z" />
    <glyph glyph-name="hyphen" unicode="-" horiz-adv-x="324" 
d="M30 311h255l9 -76h-255z" />
    <glyph glyph-name="period" unicode="." horiz-adv-x="180" 
d="M150 60c0 -16.667 -5.66699 -30.834 -17 -42.501s-25.333 -17.5 -42 -17.5c-17.333 0 -31.833 5.83301 -43.5 17.5s-17.5 25.834 -17.5 42.501s5.83301 30.834 17.5 42.501s26.167 17.5 43.5 17.5c16.667 0 30.667 -5.83301 42 -17.5s17 -25.834 17 -42.501z" />
    <glyph glyph-name="slash" unicode="/" horiz-adv-x="419" 
d="M10 0l303 710l96 -4l-304 -710z" />
    <glyph glyph-name="zero" unicode="0" horiz-adv-x="597" 
d="M299 -13c-51.333 0 -97.5 12.8301 -138.5 38.4971s-73 61.334 -96 107.001s-34.5 96.834 -34.5 153.501c0 56 11.5 106.333 34.5 151s55 79.5 96 104.5s87.167 37.5 138.5 37.5s97.333 -12.5 138 -37.5s72.5 -59.667 95.5 -104s34.5 -94.166 34.5 -149.499
c0 -57.333 -11.5 -109 -34.5 -155s-54.833 -81.833 -95.5 -107.5s-86.667 -38.5 -138 -38.5zM299 496.997c-34 0 -64.5 -8.83105 -91.5 -26.498s-48 -42.334 -63 -74.001s-22.5 -67.5 -22.5 -107.5c0 -42 7.5 -79.667 22.5 -113s36 -59.5 63 -78.5s57.5 -28.5 91.5 -28.5
s64.5 9.16699 91.5 27.5s48 43.833 63 76.5s22.5 69.667 22.5 111c0 40.667 -7.5 77.167 -22.5 109.5s-36 57.666 -63 75.999s-57.5 27.5 -91.5 27.5z" />
    <glyph glyph-name="one" unicode="1" horiz-adv-x="325" 
d="M255 566v-566h-96v458l-105 -56l-44 76l181 88h64z" />
    <glyph glyph-name="two" unicode="2" horiz-adv-x="481" 
d="M38 527c26 15.333 52.833 27.832 80.5 37.499s61.167 14.5 100.5 14.5c65.333 0 116.833 -14 154.5 -42s56.5 -67.667 56.5 -119c0 -40 -10.667 -77.833 -32 -113.5s-60.333 -77.167 -117 -124.5l-127 -106h289l18 -74h-436v63l211 185c36 32 62.667 60 80 84
s26 48.333 26 73c0 32.667 -11 56.834 -33 72.501s-52.333 23.5 -91 23.5c-32 0 -59 -4.5 -81 -13.5s-47.333 -21.5 -76 -37.5l-23 77v0z" />
    <glyph glyph-name="three" unicode="3" horiz-adv-x="470" 
d="M15 514c66.667 43.333 134.331 65 202.998 65c44 0 81.333 -7.66699 112 -23s53.834 -35.833 69.501 -61.5s23.5 -53.5 23.5 -83.5c0 -32 -9.66699 -61 -29 -87s-42.333 -44 -69 -54c30 -6.66699 55.833 -24.5 77.5 -53.5s32.5 -63.5 32.5 -103.5
c0 -35.333 -9.5 -67.5 -28.5 -96.5s-46 -51.667 -81 -68s-75.5 -24.5 -121.5 -24.5c-34.667 0 -69.667 5.5 -105 16.5s-68.333 24.5 -99 40.5l49 66c26 -15.333 51 -26.666 75 -33.999s51.333 -11 82 -11c36.667 0 68.667 10.167 96 30.5s41 46.833 41 79.5
c0 37.333 -14.167 66.666 -42.5 87.999s-72.166 32 -131.499 32h-30l-14 73h50c48 0 86 9.5 114 28.5s42 44.167 42 75.5c0 25.333 -10.667 47 -32 65s-49.333 27 -84 27c-29.333 0 -57.333 -5 -84 -15s-50 -22 -70 -36l-46 64v0z" />
    <glyph glyph-name="four" unicode="4" horiz-adv-x="536" 
d="M411 145h105l-11 -79h-94v-135h-96v135h-292l-13 79l332 426h69v-426zM315 145v264l-202 -264h202z" />
    <glyph glyph-name="five" unicode="5" horiz-adv-x="501" 
d="M260 266c-22.667 0 -43.167 -5 -61.5 -15s-32.166 -21 -41.499 -33h-89l16 348h350l-11 -79h-254l-8 -170c29.333 17.333 60.666 26 93.999 26c70.667 0 124.167 -19.333 160.5 -58s54.833 -87.667 55.5 -147c0 -40.667 -9.5 -77.167 -28.5 -109.5
s-46.5 -57.833 -82.5 -76.5s-78.667 -28 -128 -28c-34 0 -68.667 5.5 -104 16.5s-68 24.5 -98 40.5l48 67c26 -15.333 50.833 -26.5 74.5 -33.5s51.5 -10.5 83.5 -10.5c42.667 0 77.167 12.167 103.5 36.5s39.5 56.833 39.5 97.5c0 40 -11 71.333 -33 94s-50.667 34 -86 34z
" />
    <glyph glyph-name="six" unicode="6" horiz-adv-x="520" 
d="M490 190c0 -38.667 -9.16602 -73.499 -27.499 -104.499s-44 -55.167 -77 -72.5s-70.167 -26 -111.5 -26c-47.333 0 -89.333 10.167 -126 30.5s-65.5 50.333 -86.5 90s-31.5 87.834 -31.5 144.501c0 73.333 19.167 137.666 57.5 192.999s86.333 98.833 144 130.5
s115.5 51.167 173.5 58.5l18 -76c-65.333 -12.667 -125.5 -36.667 -180.5 -72s-91.5 -83.666 -109.5 -144.999c21.333 14.667 43 26 65 34s46.333 12 73 12c42.667 0 80.667 -8.33301 114 -25s59.166 -39.834 77.499 -69.501s27.5 -63.834 27.5 -102.501zM401.001 185.001
c0 38 -12.001 68.333 -36.001 91s-56.333 34 -97 34c-46.667 0 -95.334 -21.667 -146.001 -65c2.66699 -56.667 17.834 -100.5 45.501 -131.5s61.834 -46.5 102.501 -46.5c38 0 69.333 11.167 94 33.5s37 50.5 37 84.5z" />
    <glyph glyph-name="seven" unicode="7" horiz-adv-x="451" 
d="M431 525l-213 -594l-90 27l194 529h-300l-12 79h391z" />
    <glyph glyph-name="eight" unicode="8" horiz-adv-x="515" 
d="M57 474c0 30 8.00098 58 24.001 84s39.167 46.667 69.5 62s66.166 23 107.499 23s77.166 -7.66699 107.499 -23s53.5 -36 69.5 -62s24 -54 24 -84c0 -28.667 -9.33301 -55.167 -28 -79.5s-42 -42.833 -70 -55.5c21.333 -6 41.5 -17 60.5 -33s34.333 -35.333 46 -58
s17.5 -46.334 17.5 -71.001c0 -34.667 -9 -66.5 -27 -95.5s-44.167 -52 -78.5 -69s-74.833 -25.5 -121.5 -25.5c-47.333 0 -88.166 8.5 -122.499 25.5s-60.5 39.833 -78.5 68.5s-27 60.667 -27 96c0 22.667 5.83301 45.5 17.5 68.5s27 43 46 60s39.167 28.167 60.5 33.5
c-28.667 12.667 -52 30.834 -70 54.501s-27 50.5 -27 80.5zM369.001 473c0 26 -10.166 47.833 -30.499 65.5s-47.833 26.5 -82.5 26.5c-33.333 0 -60 -9 -80 -27s-30 -39.667 -30 -65s9.83301 -47.166 29.5 -65.499s47.167 -30.166 82.5 -35.499
c35.333 5.33301 62.666 17.166 81.999 35.499s29 40.166 29 65.499zM395.002 175c0 32 -11.833 59.667 -35.5 83s-57.5 38 -101.5 44c-44.667 -6 -78.834 -20.667 -102.501 -44s-35.5 -51 -35.5 -83c0 -33.333 13.333 -60 40 -80s59.334 -30 98.001 -30
c37.333 0 69.5 10.167 96.5 30.5s40.5 46.833 40.5 79.5z" />
    <glyph glyph-name="nine" unicode="9" horiz-adv-x="520" 
d="M490 314c0 -73.333 -19.168 -137.667 -57.501 -193s-86.333 -98.833 -144 -130.5s-115.5 -51.167 -173.5 -58.5l-18 76c65.333 12.667 125.5 36.667 180.5 72s91.5 83.666 109.5 144.999c-21.333 -14.667 -43 -26 -65 -34s-46.333 -12 -73 -12
c-42.667 0 -80.667 8.33301 -114 25s-59.166 39.834 -77.499 69.501s-27.5 63.834 -27.5 102.501s9.16699 73.5 27.5 104.5s44 55.167 77 72.5s70.167 26 111.5 26c47.333 0 89.333 -10.167 126 -30.5s65.5 -50.333 86.5 -90s31.5 -87.834 31.5 -144.501zM251.999 255.999
c46.667 0 95.335 21.667 146.002 65c-2.66699 56.667 -17.834 100.5 -45.501 131.5s-61.834 46.5 -102.501 46.5c-38 0 -69.333 -11.167 -94 -33.5s-37 -50.5 -37 -84.5c0 -38 12 -68.333 36 -91s56.333 -34 97 -34z" />
    <glyph glyph-name="colon" unicode=":" horiz-adv-x="180" 
d="M150 401c0 -16.667 -5.83301 -30.834 -17.5 -42.501s-25.834 -17.5 -42.501 -17.5s-30.834 5.83301 -42.501 17.5s-17.5 25.834 -17.5 42.501s5.83301 31 17.5 43s25.834 18 42.501 18s30.834 -6 42.501 -18s17.5 -26.333 17.5 -43zM150 78
c0 -16.667 -5.83301 -30.834 -17.5 -42.501s-25.834 -17.5 -42.501 -17.5s-30.834 5.83301 -42.501 17.5s-17.5 25.834 -17.5 42.501c0 17.333 5.83301 31.833 17.5 43.5s25.834 17.5 42.501 17.5s30.834 -5.83301 42.501 -17.5s17.5 -26.167 17.5 -43.5z" />
    <glyph glyph-name="semicolon" unicode=";" horiz-adv-x="186" 
d="M34 401c0 16.667 6 31 18 43s26.667 18 44 18c16.667 0 30.834 -6 42.501 -18s17.5 -26.333 17.5 -43s-5.83301 -30.834 -17.5 -42.501s-25.834 -17.5 -42.501 -17.5c-17.333 0 -32 5.83301 -44 17.5s-18 25.834 -18 42.501zM33 78c0 16 6 30.167 18 42.5
s26 18.5 42 18.5c18 0 32.833 -6.66699 44.5 -20s17.5 -31 17.5 -53c0 -34 -10.667 -68.167 -32 -102.5s-48 -59.833 -80 -76.5l-23 45c19.333 14.667 34 28.167 44 40.5s16 27.5 18 45.5c-12 0.666992 -23.167 7 -33.5 19s-15.5 25.667 -15.5 41z" />
    <glyph glyph-name="less" unicode="&#x3c;" horiz-adv-x="335" 
d="M123 245l192 -150l-23 -76l-262 199v53l262 199l23 -76z" />
    <glyph glyph-name="equal" unicode="=" horiz-adv-x="506" 
d="M30 389h438l8 -73h-437zM30 194h438l8 -73h-437z" />
    <glyph glyph-name="greater" unicode="&#x3e;" horiz-adv-x="335" 
d="M43 470l262 -199v-53l-262 -199l-23 76l192 150l-192 149z" />
    <glyph glyph-name="question" unicode="?" horiz-adv-x="419" 
d="M10 643c31.333 19.333 60.999 33.834 88.999 43.501s60 14.5 96 14.5c64 0 112.333 -15.5 145 -46.5s49 -72.5 49 -124.5c0 -37.333 -15.833 -74.833 -47.5 -112.5s-73.5 -68.834 -125.5 -93.501l-12 -165l-69 28l-8 186c50.667 16.667 91.667 38.667 123 66s47 57 47 89
c0 30.667 -9.16699 53.667 -27.5 69s-44.166 23 -77.499 23c-28 0 -55.667 -5.16699 -83 -15.5s-56.333 -25.833 -87 -46.5zM104.999 60.001c0 16.667 5.83301 30.834 17.5 42.501s25.834 17.5 42.501 17.5s31 -5.83301 43 -17.5s18 -25.834 18 -42.501
s-6 -30.834 -18 -42.501s-26.333 -17.5 -43 -17.5s-30.834 5.83301 -42.501 17.5s-17.5 25.834 -17.5 42.501z" />
    <glyph glyph-name="at" unicode="@" horiz-adv-x="764" 
d="M519 421l27.999 -34.999l-23 -204c-2 -14.667 1.5 -25.834 10.5 -33.501s18.833 -11.5 29.5 -11.5c25.333 0 46.5 14.833 63.5 44.5s25.5 68.834 25.5 117.501c0 43.333 -9.83301 81.833 -29.5 115.5s-47.167 60 -82.5 79s-76 28.5 -122 28.5
c-52.667 0 -102 -12.5 -148 -37.5s-83 -60.5 -111 -106.5s-42 -99 -42 -159c0 -48.667 11.167 -91.334 33.5 -128.001s52.333 -64.834 90 -84.501s79.167 -29.5 124.5 -29.5c28 0 56.667 2.83301 86 8.5s55.666 14.5 78.999 26.5l24 -72c-54 -28 -120.667 -42 -200 -42
c-55.333 0 -108 13.5 -158 40.5s-90.333 64.833 -121 113.5s-46 104.334 -46 167.001c0 68.667 16 132 48 190s77.667 104 137 138s128 51 206 51c60 0 113.833 -12.667 161.5 -38s84.834 -60.166 111.501 -104.499s40 -94.5 40 -150.5
c0 -78.667 -16.167 -138.834 -48.5 -180.501s-75.166 -62.5 -128.499 -62.5c-33.333 0 -60 10 -80 30c-30.667 -19.333 -61 -29 -91 -29c-56 0 -98.333 13.833 -127 41.5s-43 65.167 -43 112.5c0 40 10.667 75.5 32 106.5s49.333 55 84 72s71.667 25.5 111 25.5h76z
M302.999 217.001c0 -22 6.66699 -40.832 20 -56.499s34 -23.5 62 -23.5c16 0 29.167 4.33301 39.5 13s16.833 21 19.5 37l21 165h-16c-40.667 0 -75.167 -11.833 -103.5 -35.5s-42.5 -56.834 -42.5 -99.501z" />
    <glyph glyph-name="A" unicode="A" 
d="M10 0l256 680h87l262 -674l-95 -14l-71 190h-277l-68 -182h-94zM199 259h221l-112 292z" />
    <glyph glyph-name="B" unicode="B" horiz-adv-x="603" 
d="M573 194c0 -64.667 -22.5 -113.166 -67.5 -145.499s-105.167 -48.5 -180.5 -48.5h-235v680h214c156 0 234 -61.333 234 -184c0 -50 -29 -93.667 -87 -131c38 -14.667 67.833 -36.334 89.5 -65.001s32.5 -64 32.5 -106zM439 495.001c0 39.333 -12 66.499 -36 81.499
s-59.667 22.5 -107 22.5h-110v-209h93c48 0.666992 86.667 9.33398 116 26.001s44 43 44 79zM475 192c0 40 -12.668 70 -38.001 90s-60.666 30 -105.999 30h-145v-233h135c46.667 0 84 9.16699 112 27.5s42 46.833 42 85.5z" />
    <glyph glyph-name="C" unicode="C" horiz-adv-x="559" 
d="M363 694c24 0 53.334 -3.5 88.001 -10.5s63 -17.167 85 -30.5l-30 -69c-30 10.667 -54.333 18 -73 22s-42.667 6 -72 6c-41.333 0 -78.833 -11.5 -112.5 -34.5s-60.167 -55.5 -79.5 -97.5s-29 -89.667 -29 -143c0 -49.333 8.5 -94.5 25.5 -135.5s41.667 -73.5 74 -97.5
s70.166 -36 113.499 -36c56 0 105.667 10 149 30l37 -72c-22 -11.333 -50.667 -20.833 -86 -28.5s-67.333 -11.5 -96 -11.5c-67.333 0 -124.833 15.5 -172.5 46.5s-83.667 73 -108 126s-36.5 112.167 -36.5 177.5c0 68 13.167 129.167 39.5 183.5s64 97 113 128
s105.833 46.5 170.5 46.5z" />
    <glyph glyph-name="D" unicode="D" horiz-adv-x="678" 
d="M638 344c0 -66.667 -11.834 -125.999 -35.501 -177.999s-58.667 -92.667 -105 -122s-101.833 -44 -166.5 -44h-241v680h245c100.667 0 176.334 -30.833 227.001 -92.5s76 -142.834 76 -243.501zM540.999 343.001c0 78.667 -16.833 140.833 -50.5 186.5
s-84.167 68.5 -151.5 68.5h-153v-518h145c64 0 115 22.833 153 68.5s57 110.5 57 194.5z" />
    <glyph glyph-name="E" unicode="E" horiz-adv-x="542" 
d="M509 75l13 -75h-432v680h419l13 -74h-336v-223h231l13 -74h-244v-234h323z" />
    <glyph glyph-name="F" unicode="F" horiz-adv-x="491" 
d="M186 378h221l12 -73h-233v-305h-96v680h367l14 -74h-285v-228z" />
    <glyph glyph-name="G" unicode="G" horiz-adv-x="628" 
d="M489 284l-148.003 0.00195312l8 73h229l-1 -323c-24 -14 -54 -25.5 -90 -34.5s-71.667 -13.5 -107 -13.5c-68 0 -127.667 15.333 -179 46s-91 72.5 -119 125.5s-42 112.5 -42 178.5c0 69.333 15.333 131.166 46 185.499s72.667 96.666 126 126.999s113 45.5 179 45.5
c25.333 0 55.5 -3.5 90.5 -10.5s63.5 -17.167 85.5 -30.5l-30 -69c-30 10.667 -54.167 18 -72.5 22s-42.166 6 -71.499 6c-45.333 0 -87.166 -10.667 -125.499 -32s-69.166 -52.833 -92.499 -94.5s-35 -91.167 -35 -148.5c0 -54 10.333 -101.333 31 -142s49 -72 85 -94
s76.667 -33 122 -33c37.333 0 74.333 5.66699 111 17v199z" />
    <glyph glyph-name="H" unicode="H" horiz-adv-x="674" 
d="M584 680v-680h-96v303h-302v-303h-96v680l96 5v-305h302v300h96z" />
    <glyph glyph-name="I" unicode="I" horiz-adv-x="276" 
d="M186 680v-680h-96v680h96z" />
    <glyph glyph-name="J" unicode="J" horiz-adv-x="268" 
d="M10 -33c24 8.66699 41.5 16.667 52.5 24s18.667 17 23 29s6.5 29.667 6.5 53v607h96v-625c0 -29.333 -4.16699 -53.5 -12.5 -72.5s-22.5 -35 -42.5 -48s-48.333 -25.167 -85 -36.5l-38 69v0z" />
    <glyph glyph-name="K" unicode="K" 
d="M186 235v-235h-96v680h96v-315l310 330l68 -56l-241 -257l292 -382h-117l-239 313z" />
    <glyph glyph-name="L" unicode="L" horiz-adv-x="515" 
d="M186 75h307l12 -75h-415v680h96v-605z" />
    <glyph glyph-name="M" unicode="M" horiz-adv-x="765" 
d="M578 472l-169 -249l-35 -5l-188 263v-481h-96v680h59l239 -336l227 336h60v-680h-97v472z" />
    <glyph glyph-name="N" unicode="N" horiz-adv-x="715" 
d="M186 507v-507h-96v680h85l353 -503v503h97v-680h-86z" />
    <glyph glyph-name="O" unicode="O" horiz-adv-x="729" 
d="M40 337c0 67.333 14.001 128 42.001 182s66.667 96.667 116 128s105 47.666 167 48.999c62 0 117.667 -15.167 167 -45.5s87.833 -72.166 115.5 -125.499s41.5 -113.666 41.5 -180.999s-14 -128 -42 -182s-66.833 -96.667 -116.5 -128s-105.834 -47.333 -168.501 -48
c-61.333 0 -116.5 15 -165.5 45s-87.333 71.667 -115 125s-41.5 113.666 -41.5 180.999zM367.001 613c-43.333 0 -82.3311 -11.832 -116.998 -35.499s-61.667 -56.334 -81 -98.001s-29 -88.834 -29 -141.501c0 -51.333 9.5 -97.666 28.5 -138.999s45.333 -73.5 79 -96.5
s71.5 -34.5 113.5 -34.5c43.333 0 82.166 11.833 116.499 35.5s61.166 56.5 80.499 98.5s29 89.333 29 142c0 51.333 -9.5 97.5 -28.5 138.5s-45.167 73 -78.5 96s-71 34.5 -113 34.5z" />
    <glyph glyph-name="P" unicode="P" horiz-adv-x="572" 
d="M186 250l-0.000976562 -249.998h-96v680h195c77.333 0 139.5 -17.333 186.5 -52s70.5 -88 70.5 -160c0 -48.667 -12 -89.334 -36 -122.001s-56.167 -56.834 -96.5 -72.501s-85.166 -23.5 -134.499 -23.5h-89zM441.999 464.002c0 49.333 -13.333 84.167 -40 104.5
s-66 30.5 -118 30.5h-98v-269h93c48.667 0 87.5 11 116.5 33s44.5 55.667 46.5 101z" />
    <glyph glyph-name="Q" unicode="Q" horiz-adv-x="729" 
d="M602 95l73 -70.999l-56 -49l-74 69c-53.333 -38 -114.333 -57.333 -183 -58c-61.333 0 -116.5 15 -165.5 45s-87.333 71.667 -115 125s-41.5 113.666 -41.5 180.999s14 128 42 182s66.667 96.667 116 128s105 47.666 167 48.999c62 0 117.667 -15.167 167 -45.5
s87.833 -72.166 115.5 -125.499s41.5 -113.666 41.5 -180.999c0 -48.667 -7.5 -94.334 -22.5 -137.001s-36.5 -80 -64.5 -112zM480 105.001l-88.001 82.001l66 50l77 -75c34.667 49.333 52 110 52 182c0 51.333 -9.5 97.5 -28.5 138.5s-45.167 73 -78.5 96
s-71 34.5 -113 34.5c-43.333 0 -82.333 -11.833 -117 -35.5s-61.667 -56.334 -81 -98.001s-29 -88.834 -29 -141.501c0 -51.333 9.5 -97.666 28.5 -138.999s45.333 -73.5 79 -96.5s71.5 -34.5 113.5 -34.5c44.667 0 84.334 12.333 119.001 37z" />
    <glyph glyph-name="R" unicode="R" horiz-adv-x="604" 
d="M90 0v679.999h195c76.667 0 138.667 -16.667 186 -50s71 -84 71 -152c-0.666992 -42.667 -11.667 -79.167 -33 -109.5s-50 -53.166 -86 -68.499l171 -300h-104l-152 275c-11.333 -2 -32.333 -3 -63 -3h-89v-272h-96zM442 473.999c0 45.333 -13.502 77.5 -40.502 96.5
s-66.167 28.5 -117.5 28.5h-98v-249h93c48.667 0 87.834 9.83301 117.501 29.5s44.834 51.167 45.501 94.5z" />
    <glyph glyph-name="S" unicode="S" horiz-adv-x="518" 
d="M243 -13c-29.333 0 -65.166 5.33105 -107.499 15.998s-70.166 22 -83.499 34l22 76c21.333 -11.333 47.666 -21.333 78.999 -30s61 -13 89 -13c47.333 0 84 8.83301 110 26.5s39 41.5 39 71.5c0 21.333 -6.5 40.166 -19.5 56.499s-31.5 31.333 -55.5 45
s-57.333 29.834 -100 48.501c-42 18.667 -75.5 36.834 -100.5 54.501s-43.833 38.334 -56.5 62.001s-19 52.167 -19 85.5s9 63.333 27 90s43.833 47.667 77.5 63s73.167 23 118.5 23c31.333 0 62.833 -4.33301 94.5 -13s60.167 -19.334 85.5 -32.001l-32 -76
c-23.333 11.333 -45.5 20.166 -66.5 26.499s-45.833 9.5 -74.5 9.5c-40 0 -72.333 -7.66699 -97 -23s-37 -37.333 -37 -66c0 -22 6.33301 -41.167 19 -57.5s30.667 -31.166 54 -44.499s57.666 -30.333 102.999 -51c60.667 -27.333 105.167 -55.666 133.5 -84.999
s42.5 -67.333 42.5 -114c0 -36 -9.66699 -67.833 -29 -95.5s-47.333 -49.167 -84 -64.5s-80.667 -23 -132 -23z" />
    <glyph glyph-name="T" unicode="T" horiz-adv-x="572" 
d="M10 680h539l13 -76h-234v-604h-97v604h-221v76z" />
    <glyph glyph-name="U" unicode="U" horiz-adv-x="690" 
d="M80 680l96 -0.00195312v-428c0 -56.667 15.5 -101.5 46.5 -134.5s71.833 -49.5 122.5 -49.5c52 0 93 16.667 123 50s45 78 45 134v428h97v-437c0 -48.667 -10.833 -92.167 -32.5 -130.5s-52.5 -68.5 -92.5 -90.5s-86.667 -33 -140 -33s-100 10.833 -140 32.5
s-70.833 51.834 -92.5 90.501s-32.5 82.334 -32.5 131.001v437z" />
    <glyph glyph-name="V" unicode="V" 
d="M10 674l95 14l212 -559l204 551h94l-256 -680h-87z" />
    <glyph glyph-name="W" unicode="W" horiz-adv-x="893" 
d="M600 0l-153 542l-148 -542h-87l-202 674l95 14l152 -559l144 551h94l150 -551l144 551h94l-196 -680h-87z" />
    <glyph glyph-name="X" unicode="X" horiz-adv-x="604" 
d="M303 276l-193 -276h-100l243 344l-215 316l78 40l199 -298l178 278h101l-230 -345l217 -335h-103z" />
    <glyph glyph-name="Y" unicode="Y" horiz-adv-x="579" 
d="M332 271l-1 -271h-96v270l-225 393l93 34l180 -331l184 314h102z" />
    <glyph glyph-name="Z" unicode="Z" horiz-adv-x="564" 
d="M125 75h406l10 -75h-510l-11 75l415 529h-374l-13 76h486l10 -76z" />
    <glyph glyph-name="bracketleft" unicode="[" horiz-adv-x="318" 
d="M308 -88h-208v784h208l-14 -74h-101v-637h101z" />
    <glyph glyph-name="backslash" unicode="\" horiz-adv-x="419" 
d="M106 710l303 -710l-96 -4l-303 710z" />
    <glyph glyph-name="bracketright" unicode="]" horiz-adv-x="317" 
d="M10 696h207v-784h-207l13 73h100v637h-100z" />
    <glyph glyph-name="asciicircum" unicode="^" horiz-adv-x="432" 
d="M325 143l-109 158l-109 -158h-97l172 247h69l171 -247h-97z" />
    <glyph glyph-name="underscore" unicode="_" horiz-adv-x="440" 
d="M30 75h371l9 -75h-371z" />
    <glyph glyph-name="grave" unicode="`" horiz-adv-x="176" 
d="M166 606l-66 -17l-90 158h102z" />
    <glyph glyph-name="a" unicode="a" horiz-adv-x="493" 
d="M243 412c-44 0 -90.667 -10.999 -140 -32.999l-27 76c17.333 12 43.5 22.167 78.5 30.5s63.833 12.5 86.5 12.5c36.667 0 70 -7.5 100 -22.5s53.5 -35.5 70.5 -61.5s25.5 -54.333 25.5 -85v-329h-67l-12 46c-18 -16 -40 -29.667 -66 -41s-51.333 -17 -76 -17
c-55.333 0 -97.333 13.833 -126 41.5s-43 64.5 -43 110.5c0 47.333 16.167 84.166 48.5 110.499s75.5 39.5 129.5 39.5h115c0 39.333 -7.16699 69.5 -21.5 90.5s-39.5 31.5 -75.5 31.5zM223 226.001c-28 0 -50 -8.33301 -66 -25s-24 -37 -24 -61c0 -20.667 7 -38.5 21 -53.5
s34 -22.5 60 -22.5c23.333 0 46 5.83301 68 17.5s41.667 27.167 59 46.5v98h-118z" />
    <glyph glyph-name="b" unicode="b" horiz-adv-x="537" 
d="M507 239c0 -50 -9.99805 -93.999 -29.998 -131.999s-48.333 -67.5 -85 -88.5s-79 -31.5 -127 -31.5c-16.667 0 -36.167 3.5 -58.5 10.5s-43.5 17.5 -63.5 31.5l-19 -29h-54v695l96 11v-238c18 9.33301 35.833 16.666 53.5 21.999s33.167 8 46.5 8
c49.333 0 92.166 -10.667 128.499 -32s64.166 -51.5 83.499 -90.5s29 -84.5 29 -136.5zM409.002 238.001c0 53.333 -12.501 96.333 -37.501 129s-60.167 49 -105.5 49c-39.333 0 -72.666 -11.667 -99.999 -35v-279c28 -22 61.333 -33 100 -33
c44.667 0 79.667 15.833 105 47.5s38 72.167 38 121.5z" />
    <glyph glyph-name="c" unicode="c" horiz-adv-x="464" 
d="M271 69c27.333 0 51.001 2.66797 71.001 8.00098s41.667 13.666 65 24.999l29 -69c-20 -13.333 -46.833 -24.333 -80.5 -33s-61.834 -13 -84.501 -13c-48.667 0 -91.167 10.667 -127.5 32s-64.333 51.333 -84 90s-29.5 83.334 -29.5 134.001c0 50 10 94.333 30 133
s48.5 68.667 85.5 90s80.167 32 129.5 32c22 0 49.667 -4.5 83 -13.5s60 -20.167 80 -33.5l-28 -68c-27.333 11.333 -50.5 19.666 -69.5 24.999s-41.167 8 -66.5 8c-44 0 -79.167 -16.333 -105.5 -49s-39.833 -73.667 -40.5 -123c0 -52 12.667 -94.167 38 -126.5
s60.333 -48.5 105 -48.5z" />
    <glyph glyph-name="d" unicode="d" horiz-adv-x="544" 
d="M474 0h-55.0029l-19 37c-20 -16 -42.167 -28.333 -66.5 -37s-45.166 -13 -62.499 -13c-49.333 0 -92.166 10.667 -128.499 32s-64.166 51.5 -83.499 90.5s-29 84.5 -29 136.5c0 50 10 94 30 132s48.333 67.5 85 88.5s79 31.5 127 31.5c14 0 30.5 -2.66699 49.5 -8
s37.5 -13 55.5 -23v228l97 10v-705zM270.997 69c22 0 41.333 3.33301 58 10s32.667 17 48 31v268c-15.333 13.333 -31.5 23 -48.5 29s-36.167 9 -57.5 9c-44.667 0 -79.667 -15.833 -105 -47.5s-38 -72.167 -38 -121.5c0 -53.333 12.5 -96.333 37.5 -129
s60.167 -49 105.5 -49z" />
    <glyph glyph-name="e" unicode="e" horiz-adv-x="504" 
d="M262 498c70 0 122.834 -23.501 158.501 -70.501s53.5 -107.167 53.5 -180.5v-26h-344c4 -47.333 19.167 -84.666 45.5 -111.999s65.5 -41 117.5 -41c25.333 0 47.5 3.16699 66.5 9.5s45.5 17.5 79.5 33.5l30 -70c-58.667 -35.333 -117.334 -53 -176.001 -53
c-84.667 0 -149.667 23 -195 69s-68 108 -68 186c0 50 9.33301 94.333 28 133s45.5 68.667 80.5 90s76.167 32 123.5 32zM259.001 415.999c-36.667 0 -65.8311 -11.5 -87.498 -34.5s-34.834 -54.833 -39.501 -95.5h249c-12.667 86.667 -53.334 130 -122.001 130z" />
    <glyph glyph-name="f" unicode="f" horiz-adv-x="324" 
d="M89 406h-73.001l-1 73h74v63c0 48.667 13.667 87.5 41 116.5s65 43.5 113 43.5c14 0 28.833 -2.16699 44.5 -6.5s27.834 -9.5 36.501 -15.5l-24 -74c-19.333 7.33301 -35.333 11 -48 11c-22.667 0 -39.5 -7.5 -50.5 -22.5s-16.5 -35.5 -16.5 -61.5v-54h90l31 -73h-121
v-636h-96v636z" />
    <glyph glyph-name="g" unicode="g" horiz-adv-x="540" 
d="M474 -43c0 -36 -9.16797 -68.166 -27.501 -96.499s-44.833 -50.5 -79.5 -66.5s-76.334 -24 -125.001 -24c-23.333 0 -52.666 4.5 -87.999 13.5s-63.333 20.5 -84 34.5l29 69c33.333 -14.667 58.5 -24.834 75.5 -30.501s38.5 -8.5 64.5 -8.5
c41.333 0 74.666 9.5 99.999 28.5s38 46.167 38 81.5v63c-18 -10.667 -36.667 -19 -56 -25s-36 -9 -50 -9c-49.333 0 -92.166 10.667 -128.499 32s-64.166 51.5 -83.499 90.5s-29 84.5 -29 136.5c0 50 10 94 30 132s48.333 67.5 85 88.5s79 31.5 127 31.5
c17.333 0 38 -4 62 -12s46 -19.667 66 -35l19 34h55v-528zM376.999 110.001v268c-15.333 13.333 -31.5 23 -48.5 29s-36.167 9 -57.5 9c-44.667 0 -79.667 -15.833 -105 -47.5s-38 -72.167 -38 -121.5c0 -53.333 12.5 -96.333 37.5 -129s60.167 -49 105.5 -49
c22 0 41.333 3.33301 58 10s32.667 17 48 31z" />
    <glyph glyph-name="h" unicode="h" horiz-adv-x="551" 
d="M495 320l0.00195312 -319.999h-96v311c0 35.333 -5.83301 62.166 -17.5 80.499s-32.5 27.5 -62.5 27.5c-22.667 0 -47.334 -7.16699 -74.001 -21.5s-53 -32.833 -79 -55.5v-342h-96v695l96 11v-275c25.333 21.333 53.166 38.333 83.499 51s60.166 19 89.499 19
c52.667 0 91.834 -16.333 117.501 -49s38.5 -76.667 38.5 -132z" />
    <glyph glyph-name="i" unicode="i" horiz-adv-x="217" 
d="M168 632c0 -16.667 -6 -30.834 -18 -42.501s-26.333 -17.5 -43 -17.5s-30.667 5.83301 -42 17.5s-17 25.834 -17 42.501s5.66699 30.834 17 42.501s25.333 17.5 42 17.5s31 -5.83301 43 -17.5s18 -25.834 18 -42.501zM157 485v-485h-97v485h97z" />
    <glyph glyph-name="j" unicode="j" horiz-adv-x="240" 
d="M63 632c0 16.667 5.83301 30.834 17.5 42.501s25.834 17.5 42.501 17.5s31 -5.83301 43 -17.5s18 -25.834 18 -42.501s-6 -30.834 -18 -42.501s-26.333 -17.5 -43 -17.5s-30.834 5.83301 -42.501 17.5s-17.5 25.834 -17.5 42.501zM172 485v-715h-97v715h97z" />
    <glyph glyph-name="k" unicode="k" horiz-adv-x="487" 
d="M166 174v-174h-96v695l96 11v-419l216 211l56 -64l-144 -138l193 -296h-112l-147 234z" />
    <glyph glyph-name="l" unicode="l" horiz-adv-x="236" 
d="M166 706v-706h-96v695z" />
    <glyph glyph-name="m" unicode="m" horiz-adv-x="842" 
d="M786 320l0.00683594 -320.002h-96v311c0 34.667 -5.83301 61.334 -17.5 80.001s-31.167 28 -58.5 28c-19.333 0 -41.333 -6.5 -66 -19.5s-49.334 -30.167 -74.001 -51.5c0.666992 -6 1 -15.333 1 -28v-320h-96v311c0 34.667 -5.83301 61.334 -17.5 80.001
s-31.167 28 -58.5 28c-20.667 0 -43.834 -7.16699 -69.501 -21.5s-51.5 -32.833 -77.5 -55.5v-342h-96v485h67l17 -64c25.333 23.333 54.166 42.5 86.499 57.5s63.166 22.5 92.499 22.5c32 0 59.167 -7 81.5 -21s39.166 -33.667 50.499 -59
c25.333 23.333 54.166 42.5 86.499 57.5s63.166 22.5 92.499 22.5c50.667 0 88.667 -16.5 114 -49.5s38 -76.833 38 -131.5z" />
    <glyph glyph-name="n" unicode="n" horiz-adv-x="541" 
d="M309 419c-22.667 0 -47.334 -7.16602 -74.001 -21.499s-53 -32.833 -79 -55.5v-342h-96v485h67l17 -64c26 23.333 55.333 42.5 88 57.5s65 22.5 97 22.5c52.667 0 91.834 -16.333 117.501 -49s38.5 -76.667 38.5 -132v-320h-96v311
c0 35.333 -5.83301 62.166 -17.5 80.499s-32.5 27.5 -62.5 27.5z" />
    <glyph glyph-name="o" unicode="o" horiz-adv-x="545" 
d="M270 -13c-48.667 0 -91.168 10.667 -127.501 32s-64.166 51.333 -83.499 90s-29 83.334 -29 134.001c0 50 10 94.333 30 133s48.333 68.667 85 90s79.667 32 129 32c48.667 0 91.167 -10.667 127.5 -32s64.333 -51.333 84 -90s29.5 -83.334 29.5 -134.001
c0 -50 -10 -94.333 -30 -133s-48.5 -68.667 -85.5 -90s-80.167 -32 -129.5 -32zM416.999 241c0 52 -12.667 94.167 -38 126.5s-60.333 48.5 -105 48.5c-44 0 -79.167 -16.333 -105.5 -49s-39.833 -73.667 -40.5 -123c0 -52 12.667 -94.167 38 -126.5s60.333 -48.5 105 -48.5
c44 0 79.167 16.333 105.5 49s39.833 73.667 40.5 123z" />
    <glyph glyph-name="p" unicode="p" horiz-adv-x="533" 
d="M503 239c0 -50 -9.99805 -94 -29.998 -132s-48.333 -67.5 -85 -88.5s-79 -31.5 -127 -31.5c-13.333 0 -28.833 2.33301 -46.5 7s-35.167 11.667 -52.5 21v-245h-96v715h54l21 -30c20 13.333 41.167 23.833 63.5 31.5s41.5 11.5 57.5 11.5
c49.333 0 92.166 -10.667 128.499 -32s64.166 -51.5 83.499 -90.5s29 -84.5 29 -136.5zM405.002 238c0 53.333 -12.501 96.333 -37.501 129s-60.167 49 -105.5 49c-39.333 0 -72.666 -11.667 -99.999 -35v-279c28 -22 61.333 -33 100 -33c44.667 0 79.667 15.833 105 47.5
s38 72.167 38 121.5z" />
    <glyph glyph-name="q" unicode="q" horiz-adv-x="540" 
d="M474 -230l-97.001 0.000976562v251c-18 -10.667 -36.667 -19 -56 -25s-36 -9 -50 -9c-49.333 0 -92.166 10.667 -128.499 32s-64.166 51.5 -83.499 90.5s-29 84.5 -29 136.5c0 50 10 94 30 132s48.333 67.5 85 88.5s79 31.5 127 31.5
c17.333 0 37.666 -3.83301 60.999 -11.5s45 -18.834 65 -33.501l21 32h55v-715zM376.999 110.001v268c-15.333 13.333 -31.5 23 -48.5 29s-36.167 9 -57.5 9c-44.667 0 -79.667 -15.833 -105 -47.5s-38 -72.167 -38 -121.5c0 -53.333 12.5 -96.333 37.5 -129
s60.167 -49 105.5 -49c22 0 41.333 3.33301 58 10s32.667 17 48 31z" />
    <glyph glyph-name="r" unicode="r" horiz-adv-x="338" 
d="M328 408c-25.333 0 -54 -8.5 -86 -25.5s-60.667 -37.5 -86 -61.5v-321h-96v485h54l31 -79c22.667 19.333 49.5 37.333 80.5 54s58.167 25 81.5 25l21 -77v0z" />
    <glyph glyph-name="s" unicode="s" horiz-adv-x="421" 
d="M194 -13c-23.333 0 -51.1689 3.99609 -83.502 11.9961s-57.833 18.667 -76.5 32l30 67c45.333 -22 88.666 -33 129.999 -33c32 0 57.5 5.66699 76.5 17s28.5 26.333 28.5 45c0 33.333 -36 61.333 -108 84c-106 34.667 -159 83.334 -159 146.001
c0 44 16.5 78.5 49.5 103.5s77.833 37.5 134.5 37.5c22.667 0 49.5 -4.33301 80.5 -13s56.167 -19.667 75.5 -33l-30 -65c-23.333 10.667 -44.666 18.834 -63.999 24.501s-40.666 8.5 -63.999 8.5c-25.333 0 -46.166 -5.83301 -62.499 -17.5s-24.5 -26.167 -24.5 -43.5
c0.666992 -13.333 9.5 -25.666 26.5 -36.999s41.5 -22.333 73.5 -33c109.333 -39.333 164 -91.666 164 -156.999c0 -46 -17 -81.667 -51 -107s-82.667 -38 -146 -38z" />
    <glyph glyph-name="t" unicode="t" horiz-adv-x="341" 
d="M180 479l88.001 -0.000976562l30 -73h-118v-256c0 -26 5.66699 -46.5 17 -61.5s28.666 -22.5 51.999 -22.5c12 0 27.667 3.66699 47 11l25 -73c-10 -5.33301 -22.833 -10.166 -38.5 -14.499s-30.167 -6.5 -43.5 -6.5c-48 0 -85.833 13.167 -113.5 39.5
s-41.5 63.833 -41.5 112.5v271h-68l-1 73h69v121l96 22v-143z" />
    <glyph glyph-name="u" unicode="u" horiz-adv-x="541" 
d="M232 66c22.667 0 47.334 7.16602 74.001 21.499s53 32.833 79 55.5v342h96v-485h-67l-17 64c-26 -23.333 -55.333 -42.5 -88 -57.5s-65 -22.5 -97 -22.5c-52.667 0 -91.834 16.333 -117.501 49s-38.5 76.667 -38.5 132v320h96v-311
c0 -35.333 5.83301 -62.166 17.5 -80.499s32.5 -27.5 62.5 -27.5z" />
    <glyph glyph-name="v" unicode="v" horiz-adv-x="473" 
d="M463 485l-184 -485h-89l-180 469l92 34l134 -368l128 350h99z" />
    <glyph glyph-name="w" unicode="w" horiz-adv-x="702" 
d="M692 485l-151 -485h-88l-107 345l-101 -345h-88l-147 468l92 34l100 -359l95 342h101l100 -342l95 342h99z" />
    <glyph glyph-name="x" unicode="x" horiz-adv-x="470" 
d="M228 174l-111 -174h-107l163 247l-145 221l86 34l124 -196l117 179h105l-167 -253l152 -232h-106z" />
    <glyph glyph-name="y" unicode="y" horiz-adv-x="473" 
d="M463 485l-182 -480v-235h-92v232l-179 467l92 34l134 -368l128 350h99z" />
    <glyph glyph-name="z" unicode="z" horiz-adv-x="434" 
d="M38 485h371l5 -53l-276 -356h268l10 -76h-386l-12 50l272 357h-231z" />
    <glyph glyph-name="braceleft" unicode="{" horiz-adv-x="279" 
d="M211 413c0 -26 -3.83105 -47.332 -11.498 -63.999s-20.167 -29.667 -37.5 -39c32.667 -21.333 49 -56.666 49 -105.999c0 -10 -1.5 -20.333 -4.5 -31s-7.5 -23 -13.5 -37c-0.666992 -2 -2.16699 -6 -4.5 -12s-5 -14.333 -8 -25s-4.5 -20.334 -4.5 -29.001
c0 -10.667 4.66699 -20 14 -28s22.666 -12 39.999 -12h30l9 -72h-27c-50.667 0 -88 9.66699 -112 29s-36 48.333 -36 87c0 10.667 1.5 21 4.5 31s7.5 23.333 13.5 40c0.666992 2 2.16699 6.16699 4.5 12.5s5 15 8 26s4.5 21.167 4.5 30.5c0 16.667 -6.33301 31.167 -19 43.5
s-26.334 18.5 -41.001 18.5h-39v63h39c16 0 29 6.66699 39 20s15 30 15 50c0 13.333 -1.33301 26 -4 38s-5.66699 23.333 -9 34c-9.33301 28 -14 52 -14 72c0 35.333 12.5 61.833 37.5 79.5s61.167 26.5 108.5 26.5h27l-9 -73h-30c-18 0 -31.5 -4 -40.5 -12
s-13.5 -17 -13.5 -27c0 -8.66699 1.66699 -18.334 5 -29.001s7 -21 11 -31c6 -16 10.667 -29.5 14 -40.5s5 -22.167 5 -33.5z" />
    <glyph glyph-name="bar" unicode="|" horiz-adv-x="275" 
d="M90 0v711l95 -7v-711z" />
    <glyph glyph-name="braceright" unicode="}" horiz-adv-x="278" 
d="M67 204c0 49.333 16.335 84.6641 49.002 105.997c-17.333 9.33301 -29.833 22.333 -37.5 39s-11.5 38 -11.5 64c0 11.333 1.66699 22.5 5 33.5s8 24.5 14 40.5c4 10 7.66699 20.333 11 31s5 20.334 5 29.001c0 10 -4.5 19 -13.5 27s-22.5 12 -40.5 12h-30l-9 73h27
c47.333 0 83.5 -8.83301 108.5 -26.5s37.5 -44.167 37.5 -79.5c0 -12.667 -1.33301 -25.167 -4 -37.5s-5.66699 -23.833 -9 -34.5c-4.66699 -14 -8.16699 -26.167 -10.5 -36.5s-3.5 -22.166 -3.5 -35.499c0 -20 5 -36.667 15 -50s23 -20 39 -20h39v-63h-39
c-14.667 0 -28.334 -6.16699 -41.001 -18.5s-19 -26.833 -19 -43.5c0 -7.33301 0.833008 -15.166 2.5 -23.499s4.33398 -17.5 8.00098 -27.5s5.83398 -16 6.50098 -18c6 -16.667 10.5 -30 13.5 -40s4.5 -20.333 4.5 -31c0 -38.667 -12 -67.667 -36 -87s-61.333 -29 -112 -29
h-27l9 72h30c17.333 0 30.666 4 39.999 12s14 17.333 14 28c0 6.66699 -0.833008 14 -2.5 22s-4.33398 16.833 -8.00098 26.5s-5.83398 15.5 -6.50098 17.5c-6 14 -10.5 26.333 -13.5 37s-4.5 21 -4.5 31z" />
    <glyph glyph-name="asciitilde" unicode="~" horiz-adv-x="431" 
d="M147 227c-21.333 0 -33.334 -13.001 -36.001 -39.001h-81c0 44.667 10.167 77.334 30.5 98.001s46.833 31 79.5 31c15.333 0 28.666 -1.83301 39.999 -5.5s24.333 -9.16699 39 -16.5c13.333 -6 24.333 -10.5 33 -13.5s18.667 -4.5 30 -4.5
c8.66699 0 16.834 3.16699 24.501 9.5s11.834 16.833 12.501 31.5h82c0 -45.333 -10.167 -78.333 -30.5 -99s-46.833 -31 -79.5 -31c-15.333 0 -28.5 1.66699 -39.5 5s-23.5 8.33301 -37.5 15c-12 6 -22.833 10.667 -32.5 14s-21.167 5 -34.5 5z" />
    <glyph glyph-name="uni00A0" unicode="&#xa0;" horiz-adv-x="236" 
 />
    <glyph glyph-name="exclamdown" unicode="&#xa1;" horiz-adv-x="181" 
d="M151 641c0 -16.667 -5.83301 -31 -17.5 -43s-25.834 -18 -42.501 -18s-31 6 -43 18s-18 26.333 -18 43s6 31 18 43s26.333 18 43 18s30.834 -6 42.501 -18s17.5 -26.333 17.5 -43zM54 505l74 -34l15 -471h-105z" />
    <glyph glyph-name="cent" unicode="&#xa2;" horiz-adv-x="464" 
d="M328 -6v-106.998h-88v102c-65.333 6.66699 -116.666 32.834 -153.999 78.501s-56 104.167 -56 175.5c0.666992 70 19.5 127.833 56.5 173.5s87.833 72.167 152.5 79.5v102l88 10v-116c48.667 -10 85.667 -23.667 111 -41l-28 -68
c-27.333 11.333 -50.5 19.666 -69.5 24.999s-41.167 8 -66.5 8c-44 0 -79.167 -16.333 -105.5 -49s-39.833 -73.667 -40.5 -123c0 -52 12.667 -94.167 38 -126.5s60.333 -48.5 105 -48.5c27.333 0 51 2.66699 71 8s41.667 13.666 65 24.999l29 -69
c-12.667 -8.66699 -28.834 -16.334 -48.501 -23.001s-39.5 -12 -59.5 -16z" />
    <glyph glyph-name="sterling" unicode="&#xa3;" horiz-adv-x="468" 
d="M458 0l-397.001 0.000976562l-9 75c24.667 0 42.834 7.5 54.501 22.5s17.5 35.833 17.5 62.5v150h-73l-1 73h74v124c0 55.333 13 98.666 39 129.999s64.333 47 115 47c14 0 29 -2.33301 45 -7s28.333 -10 37 -16l-25 -72c-19.333 7.33301 -35 11 -47 11
c-23.333 0 -40.333 -7.66699 -51 -23s-16 -36 -16 -62v-132h127l32 -73h-159v-98c0 -68 -9.33301 -113.667 -28 -137h252z" />
    <glyph glyph-name="currency" unicode="&#xa4;" horiz-adv-x="682" 
d="M652 -4l-57.001 -68.001l-106 107c-42 -32 -92.333 -48 -151 -48c-54.667 0.666992 -103.334 16.667 -146.001 48l-105 -107l-57 68l100 103c-26 43.333 -39 91.333 -39 144c0 26 3.66699 51.167 11 75.5s17.333 45.833 30 64.5l-102 104l57 69l107 -108
c46 32.667 96 49.334 150 50.001c54.667 -0.666992 103.334 -16.667 146.001 -48l105 106l57 -69l-99 -102c26.667 -41.333 40.334 -89.333 41.001 -144c-0.666992 -52.667 -14.667 -100 -42 -142zM338.999 74.999c28.667 0 54.833 7.33105 78.5 21.998s42.5 34.5 56.5 59.5
s21 52.833 21 83.5c0 31.333 -6.5 59.833 -19.5 85.5s-31 45.834 -54 60.501s-48.833 22 -77.5 22s-54.667 -7.16699 -78 -21.5s-41.833 -34.166 -55.5 -59.499s-20.5 -53 -20.5 -83c0 -48 13.833 -88 41.5 -120s63.5 -48.333 107.5 -49z" />
    <glyph glyph-name="yen" unicode="&#xa5;" horiz-adv-x="579" 
d="M332 144h172l9 -72h-182v-72h-96v72h-160l-9 72h169v94h-160l-9 73h146l-202 352l93 34l180 -331l184 314h102l-214 -369h149l9 -73h-181v-94z" />
    <glyph glyph-name="brokenbar" unicode="&#xa6;" horiz-adv-x="275" 
d="M90 413v298l95 -7v-298zM90 0v294l95 -6v-295z" />
    <glyph glyph-name="section" unicode="&#xa7;" horiz-adv-x="583" 
d="M481 117c4.66699 -14.667 7 -32.335 7 -53.002c0 -36 -9.66699 -67.833 -29 -95.5s-47.333 -49.167 -84 -64.5s-80.667 -23 -132 -23c-29.333 0 -65.166 5.33301 -107.499 16s-70.166 22 -83.499 34l22 76c21.333 -11.333 47.666 -21.333 78.999 -30s61 -13 89 -13
c47.333 0 84 8.83301 110 26.5s39 41.5 39 71.5c0 21.333 -6.5 40.166 -19.5 56.499s-31.5 31.333 -55.5 45s-57.333 29.834 -100 48.501c-42 18.667 -75.5 36.834 -100.5 54.501s-43.833 38.334 -56.5 62.001s-19 52.167 -19 85.5c0 27.333 6.16699 52.5 18.5 75.5
s30.166 42.833 53.499 59.5c-4.66699 14.667 -7 33 -7 55c0 33.333 9 63.333 27 90s43.833 47.667 77.5 63s73.167 23 118.5 23c31.333 0 62.833 -4.33301 94.5 -13s60.167 -19.334 85.5 -32.001l-32 -76c-23.333 11.333 -45.5 20.166 -66.5 26.499s-45.833 9.5 -74.5 9.5
c-40 0 -72.333 -7.66699 -97 -23s-37 -37.333 -37 -66c0 -22 6.33301 -41.167 19 -57.5s30.667 -31.166 54 -44.499s57.666 -30.333 102.999 -51c60.667 -27.333 105.167 -55.666 133.5 -84.999s42.5 -67.333 42.5 -114c0 -28.667 -6.16699 -54.667 -18.5 -78
s-30.166 -43 -53.499 -59zM432 191.999c16 16 24.001 36 24.001 60c0 21.333 -6.5 40.166 -19.5 56.499s-31.5 31.333 -55.5 45s-57.333 29.834 -100 48.501c-56.667 25.333 -96.667 49 -120 71c-16.667 -14.667 -25 -33.667 -25 -57c0 -22 6.33301 -41.167 19 -57.5
s30.667 -31.166 54 -44.499s57.666 -30.333 102.999 -51c51.333 -22.667 91.333 -46.334 120 -71.001z" />
    <glyph glyph-name="dieresis" unicode="&#xa8;" horiz-adv-x="302" 
d="M118 664c0 -14.667 -5.16699 -27.334 -15.5 -38.001s-23.166 -16 -38.499 -16c-14.667 0 -27.334 5.33301 -38.001 16s-16 23.334 -16 38.001s5.33301 27.334 16 38.001s23.334 16 38.001 16c15.333 0 28.166 -5.33301 38.499 -16s15.5 -23.334 15.5 -38.001zM292 664
c0 -14.667 -5.16699 -27.334 -15.5 -38.001s-23.166 -16 -38.499 -16c-14.667 0 -27.334 5.33301 -38.001 16s-16 23.334 -16 38.001s5.33301 27.334 16 38.001s23.334 16 38.001 16c15.333 0 28.166 -5.33301 38.499 -16s15.5 -23.334 15.5 -38.001z" />
    <glyph glyph-name="copyright" unicode="&#xa9;" horiz-adv-x="807" 
d="M403 706c74.667 0 140.334 -16.333 197.001 -49s100.334 -77.167 131.001 -133.5s46 -118.833 46 -187.5s-15.333 -131 -46 -187s-74.334 -100.333 -131.001 -133s-122.334 -49 -197.001 -49s-140.167 16.333 -196.5 49s-99.833 77 -130.5 133s-46 118.333 -46 187
s15.333 131.167 46 187.5s74.167 100.833 130.5 133.5s121.833 49 196.5 49zM403 645c-60.667 0 -113.834 -13.333 -159.501 -40s-80.834 -63.334 -105.501 -110.001s-37 -99.334 -37 -158.001s12.333 -111.334 37 -158.001s59.834 -83.334 105.501 -110.001
s98.834 -40 159.501 -40c61.333 0 114.833 13.333 160.5 40s80.834 63.334 105.501 110.001s37 99.334 37 158.001s-12.333 111.334 -37 158.001s-59.834 83.334 -105.501 110.001s-99.167 40 -160.5 40zM567 148c-19.333 -13.333 -43.333 -24 -72 -32s-54 -12 -76 -12
c-70 0 -124.5 21.333 -163.5 64s-58.5 99.667 -58.5 171c0 46 9.16699 86.667 27.5 122s44.5 62.666 78.5 81.999s73.667 29 119 29c22 0 47.167 -3.83301 75.5 -11.5s52.166 -18.167 71.499 -31.5l-27 -71c-24.667 12 -44.5 20.333 -59.5 25s-35.167 7 -60.5 7
c-40.667 0 -72 -13.667 -94 -41s-33 -63.666 -33 -108.999c0 -103.333 41.667 -155 125 -155c24.667 0 44.834 2.5 60.501 7.5s35.167 13.5 58.5 25.5z" />
    <glyph glyph-name="ordfeminine" unicode="&#xaa;" horiz-adv-x="330" 
d="M160 632c-16 0 -31.167 -1.83105 -45.5 -5.49805s-30.166 -8.83398 -47.499 -15.501l-17 62c11.333 8 28.5 14.833 51.5 20.5s42.167 8.5 57.5 8.5c26.667 0 50.667 -5.5 72 -16.5s38.166 -25.833 50.499 -44.5s18.5 -38.667 18.5 -60v-210h-46l-17 31
c-12 -10.667 -26.167 -19.834 -42.5 -27.501s-32.5 -11.5 -48.5 -11.5c-35.333 0 -63.5 9.5 -84.5 28.5s-31.5 43.833 -31.5 74.5c0 31.333 11.333 56 34 74s52 27 88 27h70c0 19.333 -5.16699 35 -15.5 47s-25.833 18 -46.5 18zM164 508.002
c-18 0 -32.165 -3.5 -42.498 -10.5s-15.5 -16.5 -15.5 -28.5c0 -10.667 3.66699 -19.667 11 -27s17.666 -11 30.999 -11c27.333 0 52.666 12.333 75.999 37v40h-60z" />
    <glyph glyph-name="guillemotleft" unicode="&#xab;" horiz-adv-x="382" 
d="M180 83l-150 139v46l150 139l22 -64l-99 -98l99 -98zM341 83l-151 139v46l151 139l21 -64l-99 -98l99 -98z" />
    <glyph glyph-name="logicalnot" unicode="&#xac;" horiz-adv-x="514" 
d="M10 406h466l8 -50v-244l-84 5v213h-382z" />
    <glyph glyph-name="registered" unicode="&#xae;" horiz-adv-x="719" 
d="M360 814c66 0 123.833 -14.333 173.5 -43s88 -67.834 115 -117.501s40.5 -105.167 40.5 -166.5c0 -60.667 -13.5 -115.667 -40.5 -165s-65.333 -88.333 -115 -117s-107.5 -43 -173.5 -43s-124 14.333 -174 43s-88.5 67.667 -115.5 117s-40.5 104.333 -40.5 165
c0 61.333 13.5 116.833 40.5 166.5s65.5 88.834 115.5 117.501s108 43 174 43zM360 755c-54 0 -100.833 -11.334 -140.5 -34.001s-70.167 -54.167 -91.5 -94.5s-32 -86.5 -32 -138.5c0 -50.667 10.667 -96.167 32 -136.5s51.833 -72.166 91.5 -95.499s86.5 -35 140.5 -35
c53.333 0 99.833 11.667 139.5 35s70.167 55.166 91.5 95.499s32 85.833 32 136.5c0 51.333 -10.667 97.333 -32 138s-51.833 72.334 -91.5 95.001s-86.167 34 -139.5 34zM500 568.999c0 -24 -5.83398 -44.333 -17.501 -61s-27.167 -29.334 -46.5 -38.001l89 -166h-80
l-76 151l-63 -1v-150h-71v376h124c42.667 0 76.834 -9.16699 102.501 -27.5s38.5 -46.166 38.5 -83.499zM426.999 565.999c0 24 -6.83203 39.333 -20.499 46s-35.834 10 -66.501 10h-34v-111h32c28.667 0 50.667 3.83301 66 11.5s23 22.167 23 43.5z" />
    <glyph glyph-name="degree" unicode="&#xb0;" horiz-adv-x="246" 
d="M10 604c0 30 11.167 55.667 33.5 77s48.833 32 79.5 32s57.167 -10.667 79.5 -32s33.5 -47 33.5 -77s-11.167 -55.333 -33.5 -76s-48.833 -31 -79.5 -31s-57.167 10.333 -79.5 31s-33.5 46 -33.5 76zM73 604c0 -14 4.83301 -26 14.5 -36s21.5 -15 35.5 -15
s25.833 5 35.5 15s14.5 21.667 14.5 35c0 14 -4.83301 25.833 -14.5 35.5s-21.5 14.5 -35.5 14.5s-25.833 -4.83301 -35.5 -14.5s-14.5 -21.167 -14.5 -34.5z" />
    <glyph glyph-name="plusminus" unicode="&#xb1;" horiz-adv-x="480" 
d="M283 368h159l8 -68h-167v-176l-84 5v171h-160l-9 68h169v166l84 -3v-163zM31 69h413l6 -69h-411z" />
    <glyph glyph-name="twosuperior" unicode="&#xb2;" horiz-adv-x="362" 
d="M16 725c3.33301 1.33301 11.502 5.49805 24.502 12.498s30.833 14.333 53.5 22s49 11.5 79 11.5c35.333 0 64.666 -6.33301 87.999 -19s40.5 -29 51.5 -49s16.5 -40.667 16.5 -62c0 -27.333 -8.33301 -53.666 -25 -78.999s-44 -54.333 -82 -87l-86 -72h196l10 -67h-317
v63l146 124c25.333 22 43.333 42.167 54 60.5s16 37.5 16 57.5c0 16 -6.33301 29.833 -19 41.5s-30.334 17.5 -53.001 17.5c-20.667 0 -40.5 -3.66699 -59.5 -11s-39.167 -16.666 -60.5 -27.999l-33 64v0z" />
    <glyph glyph-name="threesuperior" unicode="&#xb3;" horiz-adv-x="362" 
d="M12 722c24.667 15.333 48.999 27.3369 72.999 36.0039s50.333 13 79 13c50 0 88.333 -12 115 -36s40 -54 40 -90c0 -24 -7.33301 -46 -22 -66s-32 -33.333 -52 -40c22.667 -4.66699 42 -17.834 58 -39.501s24 -47.834 24 -78.501
c0 -26.667 -7.16699 -50.834 -21.5 -72.501s-34.666 -38.834 -60.999 -51.501s-56.833 -19 -91.5 -19c-46 0 -97 14.667 -153 44l37 60c21.333 -12 39.833 -20.667 55.5 -26s34.167 -8 55.5 -8c26.667 0 48.667 6.5 66 19.5s26 30.5 26 52.5c0 28 -9 49 -27 63
s-46.667 21 -86 21h-22l-10 67h37c34 0 59 6.66699 75 20s24 31 24 53c0 16 -6.5 29.333 -19.5 40s-31.833 16 -56.5 16c-22 0 -41.5 -3.5 -58.5 -10.5s-33.833 -16.167 -50.5 -27.5l-34 60v0z" />
    <glyph glyph-name="acute" unicode="&#xb4;" horiz-adv-x="176" 
d="M166 747l-90 -158l-66 17l54 141h102z" />
    <glyph glyph-name="mu" unicode="&#xb5;" horiz-adv-x="551" 
d="M491 0l-67.001 -0.000976562l-17 64c-26 -23.333 -55.333 -42.5 -88 -57.5s-65 -22.5 -97 -22.5c-23.333 0 -43.333 3 -60 9v-201l-96 -11v704h96v-311c0 -35.333 5.83301 -62.166 17.5 -80.499s32.5 -27.5 62.5 -27.5c22.667 0 47.334 7.16699 74.001 21.5
s53 32.833 79 55.5v342h96v-485z" />
    <glyph glyph-name="paragraph" unicode="&#xb6;" horiz-adv-x="861" 
d="M424 604l-0.000976562 -604.002h-96v250h-31c-49.333 0 -94.166 7.83301 -134.499 23.5s-72.5 39.834 -96.5 72.501s-36 73.334 -36 122.001c0 72 23.333 125.333 70 160s108.667 52 186 52h545v-76h-96v-604h-97v604h-214z" />
    <glyph glyph-name="cedilla" unicode="&#xb8;" horiz-adv-x="223" 
d="M140 -127c0 12 -8.33203 22.501 -24.999 31.501s-38 14.833 -64 17.5l36 91h73l-22 -55c21.333 -5.33301 39.166 -16 53.499 -32s21.5 -33 21.5 -51c0 -30.667 -11.667 -54.334 -35 -71.001s-51.333 -25 -84 -25c-12.667 0 -27.334 2.16699 -44.001 6.5
s-30 9.83301 -40 16.5l22 59c9.33301 -4 19.833 -7.83301 31.5 -11.5s21.834 -5.5 30.501 -5.5c12 0 22.667 2.5 32 7.5s14 12.167 14 21.5z" />
    <glyph glyph-name="onesuperior" unicode="&#xb9;" horiz-adv-x="278" 
d="M208 764v-428h-87v340l-77 -39l-34 60l141 67h57z" />
    <glyph glyph-name="ordmasculine" unicode="&#xba;" horiz-adv-x="384" 
d="M30 532c0 51.333 14.835 92.502 44.502 123.502s68.5 46.5 116.5 46.5c50 0 89.667 -15.333 119 -46s44 -72.334 44 -125.001c0 -50.667 -15.333 -91.334 -46 -122.001s-70.334 -46 -119.001 -46s-87.334 15.167 -116.001 45.5s-43 71.5 -43 123.5zM268.002 531.002
c0 33.333 -6.83496 58.499 -20.502 75.499s-32.167 25.5 -55.5 25.5c-21.333 0 -39.5 -8.33301 -54.5 -25s-22.5 -41.667 -22.5 -75c0 -32.667 6.83301 -57.5 20.5 -74.5s31.834 -25.5 54.501 -25.5s41.334 8.33301 56.001 25s22 41.334 22 74.001z" />
    <glyph glyph-name="guillemotright" unicode="&#xbb;" horiz-adv-x="383" 
d="M43 407l149 -139v-46l-149 -139l-23 64l99 98l-99 98zM203 407l150 -139v-46l-150 -139l-22 64l99 98l-99 98z" />
    <glyph glyph-name="onequarter" unicode="&#xbc;" horiz-adv-x="820" 
d="M208 764v-428h-87v340l-77 -39l-34 60l141 67h57zM55 -134l516 834h101l-517 -834h-100zM793 -78h-77v-86h-85v86h-216l-8 70l250 329h59v-329h84zM631 -8v179l-135 -179h135z" />
    <glyph glyph-name="onehalf" unicode="&#xbd;" horiz-adv-x="844" 
d="M208 764v-428h-87v340l-77 -39l-34 60l141 67h57zM45 -134l516 834h101l-517 -834h-100zM498 279c3.33301 1.33301 11.502 5.49805 24.502 12.498s30.833 14.333 53.5 22s49 11.5 79 11.5c35.333 0 64.666 -6.33301 87.999 -19s40.5 -29 51.5 -49s16.5 -40.667 16.5 -62
c0 -27.333 -8.33301 -53.666 -25 -78.999s-44 -54.333 -82 -87l-86 -72h196l10 -67h-317v63l146 124c25.333 22 43.333 42.167 54 60.5s16 37.5 16 57.5c0 16 -6.33301 29.833 -19 41.5s-30.334 17.5 -53.001 17.5c-20.667 0 -40.5 -3.66699 -59.5 -11
s-39.167 -16.666 -60.5 -27.999z" />
    <glyph glyph-name="threequarters" unicode="&#xbe;" horiz-adv-x="830" 
d="M12 722c24.667 15.333 48.998 27.3369 72.998 36.0039s50.333 13 79 13c50 0 88.333 -12 115 -36s40 -54 40 -90c0 -24 -7.33301 -46 -22 -66s-32 -33.333 -52 -40c22.667 -4.66699 42 -17.834 58 -39.501s24 -47.834 24 -78.501
c0 -26.667 -7.16699 -50.834 -21.5 -72.501s-34.666 -38.834 -60.999 -51.501s-56.833 -19 -91.5 -19c-46 0 -97 14.667 -153 44l37 60c21.333 -12 39.833 -20.667 55.5 -26s34.167 -8 55.5 -8c26.667 0 48.667 6.5 66 19.5s26 30.5 26 52.5c0 28 -9 49 -27 63
s-46.667 21 -86 21h-22l-10 67h37c26.667 0 49.834 6 69.501 18s29.5 30.333 29.5 55c0 14.667 -6.33301 27.667 -19 39s-31.667 17 -57 17c-22 0 -41.5 -3.5 -58.5 -10.5s-33.833 -16.167 -50.5 -27.5zM108.998 -133.996l516 834h101l-517 -834h-100zM666.998 321.004h59
v-329h84l-7 -70h-77v-86h-85v86h-216l-8 70zM640.998 171.004l-135 -179h135v179z" />
    <glyph glyph-name="questiondown" unicode="&#xbf;" horiz-adv-x="419" 
d="M315 582c0 -16.667 -6 -31 -18 -43s-26.333 -18 -43 -18s-31 6 -43 18s-18 26.333 -18 43s6 31 18 43s26.333 18 43 18s31 -6 43 -18s18 -26.333 18 -43zM409 -1c-30 -19.333 -59.332 -33.833 -87.999 -43.5s-61 -14.5 -97 -14.5c-64 0 -112.333 15.5 -145 46.5
s-49 72.5 -49 124.5c0 37.333 16 75 48 113s73.667 69.333 125 94l12 165l69 -29l9 -185c-52 -17.333 -93.5 -39.666 -124.5 -66.999s-46.5 -57.333 -46.5 -90c0 -30 9.16699 -52.667 27.5 -68s44.166 -23 77.499 -23c28 0 55.667 5.16699 83 15.5s56.333 26.166 87 47.499z
" />
    <glyph glyph-name="Agrave" unicode="&#xc0;" 
d="M367 756l-66 -17l-90 158h102zM10 0l256 680h87l262 -674l-95 -14l-71 190h-277l-68 -182h-94zM199 259h221l-112 292z" />
    <glyph glyph-name="Aacute" unicode="&#xc1;" 
d="M399 897l-90 -158l-66 17l54 141h102zM10 0l256 680h87l262 -674l-95 -14l-71 190h-277l-68 -182h-94zM199 259h221l-112 292z" />
    <glyph glyph-name="Acircumflex" unicode="&#xc2;" 
d="M381 739l-75 87l-75 -87l-87 10l128 148h66l129 -148zM10 0l256 680h87l262 -674l-95 -14l-71 190h-277l-68 -182h-94zM199 259h221l-112 292z" />
    <glyph glyph-name="Atilde" unicode="&#xc3;" 
d="M358 820c8.66699 0 16.165 3.33496 22.498 10.002s9.83301 15.667 10.5 27h63c0 -37.333 -8.83301 -64.333 -26.5 -81s-40.5 -25 -68.5 -25c-12.667 0 -23 1.83301 -31 5.5s-16.667 9.16699 -26 16.5c-8.66699 6.66699 -16.667 11.667 -24 15s-16.666 5 -27.999 5
c-8 0 -15.5 -3.66699 -22.5 -11s-10.833 -16 -11.5 -26h-65c0 37.333 8.66699 64.166 26 80.499s40.333 24.5 69 24.5c13.333 0 24 -1.83301 32 -5.5s17 -8.83398 27 -15.501c8.66699 -6.66699 16.834 -11.667 24.501 -15s17.167 -5 28.5 -5zM9.99805 0.00195312l256 680h87
l262 -674l-95 -14l-71 190h-277l-68 -182h-94zM198.998 259.002h221l-112 292z" />
    <glyph glyph-name="Adieresis" unicode="&#xc4;" 
d="M271 814c0 -14.667 -5.16699 -27.334 -15.5 -38.001s-23.166 -16 -38.499 -16c-14.667 0 -27.334 5.33301 -38.001 16s-16 23.334 -16 38.001s5.33301 27.334 16 38.001s23.334 16 38.001 16c15.333 0 28.166 -5.33301 38.499 -16s15.5 -23.334 15.5 -38.001zM445 814
c0 -14.667 -5.16699 -27.334 -15.5 -38.001s-23.166 -16 -38.499 -16c-14.667 0 -27.334 5.33301 -38.001 16s-16 23.334 -16 38.001s5.33301 27.334 16 38.001s23.334 16 38.001 16c15.333 0 28.166 -5.33301 38.499 -16s15.5 -23.334 15.5 -38.001zM10 0l256 680h87
l262 -674l-95 -14l-71 190h-277l-68 -182h-94zM199 259h221l-112 292z" />
    <glyph glyph-name="Aring" unicode="&#xc5;" 
d="M208 833c0 26 9.66699 48 29 66s42.333 27 69 27s49.5 -9 68.5 -27s28.5 -40 28.5 -66c0 -25.333 -9.5 -46.5 -28.5 -63.5s-41.833 -25.5 -68.5 -25.5c-27.333 0 -50.5 8.5 -69.5 25.5s-28.5 38.167 -28.5 63.5zM264 833c0 -10.667 4.16699 -20.167 12.5 -28.5
s18.166 -12.5 29.499 -12.5s21 4.16699 29 12.5s12 17.833 12 28.5c0 12 -4 22 -12 30s-17.667 12 -29 12s-21.166 -4 -29.499 -12s-12.5 -18 -12.5 -30zM10 0l256 680h87l262 -674l-95 -14l-71 190h-277l-68 -182h-94zM199 259h221l-112 292z" />
    <glyph glyph-name="AE" unicode="&#xc6;" horiz-adv-x="907" 
d="M218 182l-118 -192l-90 14l434 676h396l12 -74h-300v-223h231l13 -74h-244v-234h323l12 -75h-432v182h-237zM455 259v289l-186 -289h186z" />
    <glyph glyph-name="Ccedilla" unicode="&#xc7;" horiz-adv-x="559" 
d="M450 -125c0 -30.667 -11.665 -54.333 -34.998 -71s-51.333 -25 -84 -25c-12.667 0 -27.334 2.16699 -44.001 6.5s-30 9.83301 -40 16.5l22 59c9.33301 -4 19.833 -7.83301 31.5 -11.5s21.834 -5.5 30.501 -5.5c12 0 22.667 2.5 32 7.5s14 12.167 14 21.5
c0 12 -8.33301 22.5 -25 31.5s-38 14.833 -64 17.5l26 66c-58.667 6.66699 -108.5 26.167 -149.5 58.5s-72 73.5 -93 123.5s-31.5 105.333 -31.5 166c0 68 13.167 129.167 39.5 183.5s64 97 113 128s105.833 46.5 170.5 46.5c24 0 53.333 -3.5 88 -10.5s63 -17.167 85 -30.5
l-30 -69c-30 10.667 -54.333 18 -73 22s-42.667 6 -72 6c-41.333 0 -78.833 -11.5 -112.5 -34.5s-60.167 -55.5 -79.5 -97.5s-29 -89.667 -29 -143c0 -49.333 8.5 -94.5 25.5 -135.5s41.667 -73.5 74 -97.5s70.166 -36 113.499 -36c56 0 105.667 10 149 30l37 -72
c-18.667 -9.33301 -42 -17.5 -70 -24.5s-55.333 -11.833 -82 -14.5l-12 -29c21.333 -5.33301 39.166 -16 53.499 -32s21.5 -33 21.5 -51z" />
    <glyph glyph-name="Egrave" unicode="&#xc8;" horiz-adv-x="542" 
d="M354 756l-66 -17l-90 158h102zM509 75l13 -75h-432v680h419l13 -74h-336v-223h231l13 -74h-244v-234h323z" />
    <glyph glyph-name="Eacute" unicode="&#xc9;" horiz-adv-x="542" 
d="M386 897l-90 -158l-66 17l54 141h102zM509 75l13 -75h-432v680h419l13 -74h-336v-223h231l13 -74h-244v-234h323z" />
    <glyph glyph-name="Ecircumflex" unicode="&#xca;" horiz-adv-x="542" 
d="M368 739l-75 87l-75 -87l-87 10l128 148h66l129 -148zM509 75l13 -75h-432v680h419l13 -74h-336v-223h231l13 -74h-244v-234h323z" />
    <glyph glyph-name="Edieresis" unicode="&#xcb;" horiz-adv-x="542" 
d="M258 814c0 -14.667 -5.16699 -27.334 -15.5 -38.001s-23.166 -16 -38.499 -16c-14.667 0 -27.334 5.33301 -38.001 16s-16 23.334 -16 38.001s5.33301 27.334 16 38.001s23.334 16 38.001 16c15.333 0 28.166 -5.33301 38.499 -16s15.5 -23.334 15.5 -38.001zM432 814
c0 -14.667 -5.16699 -27.334 -15.5 -38.001s-23.166 -16 -38.499 -16c-14.667 0 -27.334 5.33301 -38.001 16s-16 23.334 -16 38.001s5.33301 27.334 16 38.001s23.334 16 38.001 16c15.333 0 28.166 -5.33301 38.499 -16s15.5 -23.334 15.5 -38.001zM509 75l13 -75h-432
v680h419l13 -74h-336v-223h231l13 -74h-244v-234h323z" />
    <glyph glyph-name="Igrave" unicode="&#xcc;" horiz-adv-x="276" 
d="M199 756l-66 -17l-90 158h102zM186 680v-680h-96v680h96z" />
    <glyph glyph-name="Iacute" unicode="&#xcd;" horiz-adv-x="276" 
d="M231 897l-90 -158l-66 17l54 141h102zM186 680v-680h-96v680h96z" />
    <glyph glyph-name="Icircumflex" unicode="&#xce;" horiz-adv-x="276" 
d="M213 739l-75 87l-75 -87l-87 10l128 148h66l129 -148zM186 680v-680h-96v680h96z" />
    <glyph glyph-name="Idieresis" unicode="&#xcf;" horiz-adv-x="276" 
d="M103 814c0 -14.667 -5.16699 -27.334 -15.5 -38.001s-23.166 -16 -38.499 -16c-14.667 0 -27.334 5.33301 -38.001 16s-16 23.334 -16 38.001s5.33301 27.334 16 38.001s23.334 16 38.001 16c15.333 0 28.166 -5.33301 38.499 -16s15.5 -23.334 15.5 -38.001zM277 814
c0 -14.667 -5.16699 -27.334 -15.5 -38.001s-23.166 -16 -38.499 -16c-14.667 0 -27.334 5.33301 -38.001 16s-16 23.334 -16 38.001s5.33301 27.334 16 38.001s23.334 16 38.001 16c15.333 0 28.166 -5.33301 38.499 -16s15.5 -23.334 15.5 -38.001zM186 680v-680h-96v680
h96z" />
    <glyph glyph-name="Eth" unicode="&#xd0;" horiz-adv-x="678" 
d="M638 344c0 -66.667 -11.834 -125.999 -35.501 -177.999s-58.667 -92.667 -105 -122s-101.833 -44 -166.5 -44h-241v300h-61l-10 75h71v305h245c100.667 0 176.334 -30.833 227.001 -92.5s76 -142.834 76 -243.501zM540.999 343.001c0 78.667 -16.833 140.833 -50.5 186.5
s-84.167 68.5 -151.5 68.5h-153v-223h91l9 -75h-100v-220h145c64 0 115 22.833 153 68.5s57 110.5 57 194.5z" />
    <glyph glyph-name="Ntilde" unicode="&#xd1;" horiz-adv-x="715" 
d="M412 820c8.66699 0 16.165 3.33496 22.498 10.002s9.83301 15.667 10.5 27h63c0 -37.333 -8.83301 -64.333 -26.5 -81s-40.5 -25 -68.5 -25c-12.667 0 -23 1.83301 -31 5.5s-16.667 9.16699 -26 16.5c-8.66699 6.66699 -16.667 11.667 -24 15s-16.666 5 -27.999 5
c-8 0 -15.5 -3.66699 -22.5 -11s-10.833 -16 -11.5 -26h-65c0 37.333 8.66699 64.166 26 80.499s40.333 24.5 69 24.5c13.333 0 24 -1.83301 32 -5.5s17 -8.83398 27 -15.501c8.66699 -6.66699 16.834 -11.667 24.501 -15s17.167 -5 28.5 -5zM185.998 507.002v-507h-96v680
h85l353 -503v503h97v-680h-86z" />
    <glyph glyph-name="Ograve" unicode="&#xd2;" horiz-adv-x="729" 
d="M423 756l-66 -17l-90 158h102zM40 337c0 67.333 14.001 128 42.001 182s66.667 96.667 116 128s105 47.666 167 48.999c62 0 117.667 -15.167 167 -45.5s87.833 -72.166 115.5 -125.499s41.5 -113.666 41.5 -180.999s-14 -128 -42 -182s-66.833 -96.667 -116.5 -128
s-105.834 -47.333 -168.501 -48c-61.333 0 -116.5 15 -165.5 45s-87.333 71.667 -115 125s-41.5 113.666 -41.5 180.999zM367.001 613c-43.333 0 -82.3311 -11.832 -116.998 -35.499s-61.667 -56.334 -81 -98.001s-29 -88.834 -29 -141.501
c0 -51.333 9.5 -97.666 28.5 -138.999s45.333 -73.5 79 -96.5s71.5 -34.5 113.5 -34.5c43.333 0 82.166 11.833 116.499 35.5s61.166 56.5 80.499 98.5s29 89.333 29 142c0 51.333 -9.5 97.5 -28.5 138.5s-45.167 73 -78.5 96s-71 34.5 -113 34.5z" />
    <glyph glyph-name="Oacute" unicode="&#xd3;" horiz-adv-x="729" 
d="M455 897l-90 -158l-66 17l54 141h102zM40 337c0 67.333 14.001 128 42.001 182s66.667 96.667 116 128s105 47.666 167 48.999c62 0 117.667 -15.167 167 -45.5s87.833 -72.166 115.5 -125.499s41.5 -113.666 41.5 -180.999s-14 -128 -42 -182
s-66.833 -96.667 -116.5 -128s-105.834 -47.333 -168.501 -48c-61.333 0 -116.5 15 -165.5 45s-87.333 71.667 -115 125s-41.5 113.666 -41.5 180.999zM367.001 613c-43.333 0 -82.3311 -11.832 -116.998 -35.499s-61.667 -56.334 -81 -98.001s-29 -88.834 -29 -141.501
c0 -51.333 9.5 -97.666 28.5 -138.999s45.333 -73.5 79 -96.5s71.5 -34.5 113.5 -34.5c43.333 0 82.166 11.833 116.499 35.5s61.166 56.5 80.499 98.5s29 89.333 29 142c0 51.333 -9.5 97.5 -28.5 138.5s-45.167 73 -78.5 96s-71 34.5 -113 34.5z" />
    <glyph glyph-name="Ocircumflex" unicode="&#xd4;" horiz-adv-x="729" 
d="M437 739l-75 87l-75 -87l-87 10l128 148h66l129 -148zM40 337c0 67.333 14.001 128 42.001 182s66.667 96.667 116 128s105 47.666 167 48.999c62 0 117.667 -15.167 167 -45.5s87.833 -72.166 115.5 -125.499s41.5 -113.666 41.5 -180.999s-14 -128 -42 -182
s-66.833 -96.667 -116.5 -128s-105.834 -47.333 -168.501 -48c-61.333 0 -116.5 15 -165.5 45s-87.333 71.667 -115 125s-41.5 113.666 -41.5 180.999zM367.001 613c-43.333 0 -82.3311 -11.832 -116.998 -35.499s-61.667 -56.334 -81 -98.001s-29 -88.834 -29 -141.501
c0 -51.333 9.5 -97.666 28.5 -138.999s45.333 -73.5 79 -96.5s71.5 -34.5 113.5 -34.5c43.333 0 82.166 11.833 116.499 35.5s61.166 56.5 80.499 98.5s29 89.333 29 142c0 51.333 -9.5 97.5 -28.5 138.5s-45.167 73 -78.5 96s-71 34.5 -113 34.5z" />
    <glyph glyph-name="Otilde" unicode="&#xd5;" horiz-adv-x="729" 
d="M414 820c8.66699 0 16.165 3.33496 22.498 10.002s9.83301 15.667 10.5 27h63c0 -37.333 -8.83301 -64.333 -26.5 -81s-40.5 -25 -68.5 -25c-12.667 0 -23 1.83301 -31 5.5s-16.667 9.16699 -26 16.5c-8.66699 6.66699 -16.667 11.667 -24 15s-16.666 5 -27.999 5
c-8 0 -15.5 -3.66699 -22.5 -11s-10.833 -16 -11.5 -26h-65c0 37.333 8.66699 64.166 26 80.499s40.333 24.5 69 24.5c13.333 0 24 -1.83301 32 -5.5s17 -8.83398 27 -15.501c8.66699 -6.66699 16.834 -11.667 24.501 -15s17.167 -5 28.5 -5zM39.998 337.002
c0 67.333 14.001 128 42.001 182s66.667 96.667 116 128s105 47.666 167 48.999c62 0 117.667 -15.167 167 -45.5s87.833 -72.166 115.5 -125.499s41.5 -113.666 41.5 -180.999s-14 -128 -42 -182s-66.833 -96.667 -116.5 -128s-105.834 -47.333 -168.501 -48
c-61.333 0 -116.5 15 -165.5 45s-87.333 71.667 -115 125s-41.5 113.666 -41.5 180.999zM366.999 613.002c-43.333 0 -82.3311 -11.832 -116.998 -35.499s-61.667 -56.334 -81 -98.001s-29 -88.834 -29 -141.501c0 -51.333 9.5 -97.666 28.5 -138.999s45.333 -73.5 79 -96.5
s71.5 -34.5 113.5 -34.5c43.333 0 82.166 11.833 116.499 35.5s61.166 56.5 80.499 98.5s29 89.333 29 142c0 51.333 -9.5 97.5 -28.5 138.5s-45.167 73 -78.5 96s-71 34.5 -113 34.5z" />
    <glyph glyph-name="Odieresis" unicode="&#xd6;" horiz-adv-x="729" 
d="M327 814c0 -14.667 -5.16699 -27.334 -15.5 -38.001s-23.166 -16 -38.499 -16c-14.667 0 -27.334 5.33301 -38.001 16s-16 23.334 -16 38.001s5.33301 27.334 16 38.001s23.334 16 38.001 16c15.333 0 28.166 -5.33301 38.499 -16s15.5 -23.334 15.5 -38.001zM501 814
c0 -14.667 -5.16699 -27.334 -15.5 -38.001s-23.166 -16 -38.499 -16c-14.667 0 -27.334 5.33301 -38.001 16s-16 23.334 -16 38.001s5.33301 27.334 16 38.001s23.334 16 38.001 16c15.333 0 28.166 -5.33301 38.499 -16s15.5 -23.334 15.5 -38.001zM40 337
c0 67.333 14.001 128 42.001 182s66.667 96.667 116 128s105 47.666 167 48.999c62 0 117.667 -15.167 167 -45.5s87.833 -72.166 115.5 -125.499s41.5 -113.666 41.5 -180.999s-14 -128 -42 -182s-66.833 -96.667 -116.5 -128s-105.834 -47.333 -168.501 -48
c-61.333 0 -116.5 15 -165.5 45s-87.333 71.667 -115 125s-41.5 113.666 -41.5 180.999zM367.001 613c-43.333 0 -82.3311 -11.832 -116.998 -35.499s-61.667 -56.334 -81 -98.001s-29 -88.834 -29 -141.501c0 -51.333 9.5 -97.666 28.5 -138.999s45.333 -73.5 79 -96.5
s71.5 -34.5 113.5 -34.5c43.333 0 82.166 11.833 116.499 35.5s61.166 56.5 80.499 98.5s29 89.333 29 142c0 51.333 -9.5 97.5 -28.5 138.5s-45.167 73 -78.5 96s-71 34.5 -113 34.5z" />
    <glyph glyph-name="multiply" unicode="&#xd7;" horiz-adv-x="528" 
d="M384 30l-121 155l-135 -155h-98l188 223l-172 221h98l121 -155l135 155h98l-188 -223l172 -221h-98z" />
    <glyph glyph-name="Oslash" unicode="&#xd8;" horiz-adv-x="729" 
d="M689 344c0 -67.333 -13.999 -128 -41.999 -182s-66.833 -96.667 -116.5 -128s-105.834 -47.333 -168.501 -48c-61.333 0 -116.5 15 -165.5 45s-87.333 71.667 -115 125s-41.5 113.666 -41.5 180.999s14 128 42 182s66.667 96.667 116 128s105 47.666 167 48.999
c62 0 117.667 -15.167 167 -45.5s87.833 -72.166 115.5 -125.499s41.5 -113.666 41.5 -180.999zM140.001 338c0 -46 7.49902 -87.665 22.499 -124.998s35.833 -68.333 62.5 -93l206 483c-19.333 6.66699 -40.666 10 -63.999 10c-43.333 0 -82.333 -11.833 -117 -35.5
s-61.667 -56.334 -81 -98.001s-29 -88.834 -29 -141.501zM587 344.002c0 43.333 -6.66504 83 -19.998 119s-32 66 -56 90l-207 -477c19.333 -5.33301 38.333 -8 57 -8c43.333 0 82.166 11.833 116.499 35.5s61.166 56.5 80.499 98.5s29 89.333 29 142z" />
    <glyph glyph-name="Ugrave" unicode="&#xd9;" horiz-adv-x="690" 
d="M404 756l-66 -17l-90 158h102zM80 680l96 -0.00195312v-428c0 -56.667 15.5 -101.5 46.5 -134.5s71.833 -49.5 122.5 -49.5c52 0 93 16.667 123 50s45 78 45 134v428h97v-437c0 -48.667 -10.833 -92.167 -32.5 -130.5s-52.5 -68.5 -92.5 -90.5s-86.667 -33 -140 -33
s-100 10.833 -140 32.5s-70.833 51.834 -92.5 90.501s-32.5 82.334 -32.5 131.001v437z" />
    <glyph glyph-name="Uacute" unicode="&#xda;" horiz-adv-x="690" 
d="M436 897l-90 -158l-66 17l54 141h102zM80 680l96 -0.00195312v-428c0 -56.667 15.5 -101.5 46.5 -134.5s71.833 -49.5 122.5 -49.5c52 0 93 16.667 123 50s45 78 45 134v428h97v-437c0 -48.667 -10.833 -92.167 -32.5 -130.5s-52.5 -68.5 -92.5 -90.5
s-86.667 -33 -140 -33s-100 10.833 -140 32.5s-70.833 51.834 -92.5 90.501s-32.5 82.334 -32.5 131.001v437z" />
    <glyph glyph-name="Ucircumflex" unicode="&#xdb;" horiz-adv-x="690" 
d="M418 739l-75 87l-75 -87l-87 10l128 148h66l129 -148zM80 680l96 -0.00195312v-428c0 -56.667 15.5 -101.5 46.5 -134.5s71.833 -49.5 122.5 -49.5c52 0 93 16.667 123 50s45 78 45 134v428h97v-437c0 -48.667 -10.833 -92.167 -32.5 -130.5s-52.5 -68.5 -92.5 -90.5
s-86.667 -33 -140 -33s-100 10.833 -140 32.5s-70.833 51.834 -92.5 90.501s-32.5 82.334 -32.5 131.001v437z" />
    <glyph glyph-name="Udieresis" unicode="&#xdc;" horiz-adv-x="690" 
d="M308 814c0 -14.667 -5.16699 -27.334 -15.5 -38.001s-23.166 -16 -38.499 -16c-14.667 0 -27.334 5.33301 -38.001 16s-16 23.334 -16 38.001s5.33301 27.334 16 38.001s23.334 16 38.001 16c15.333 0 28.166 -5.33301 38.499 -16s15.5 -23.334 15.5 -38.001zM482 814
c0 -14.667 -5.16699 -27.334 -15.5 -38.001s-23.166 -16 -38.499 -16c-14.667 0 -27.334 5.33301 -38.001 16s-16 23.334 -16 38.001s5.33301 27.334 16 38.001s23.334 16 38.001 16c15.333 0 28.166 -5.33301 38.499 -16s15.5 -23.334 15.5 -38.001zM80 680l96 -0.00195312
v-428c0 -56.667 15.5 -101.5 46.5 -134.5s71.833 -49.5 122.5 -49.5c52 0 93 16.667 123 50s45 78 45 134v428h97v-437c0 -48.667 -10.833 -92.167 -32.5 -130.5s-52.5 -68.5 -92.5 -90.5s-86.667 -33 -140 -33s-100 10.833 -140 32.5s-70.833 51.834 -92.5 90.501
s-32.5 82.334 -32.5 131.001v437z" />
    <glyph glyph-name="Yacute" unicode="&#xdd;" horiz-adv-x="579" 
d="M374 897l-90 -158l-66 17l54 141h102zM332 271l-1 -271h-96v270l-225 393l93 34l180 -331l184 314h102z" />
    <glyph glyph-name="Thorn" unicode="&#xde;" horiz-adv-x="572" 
d="M542 388c0 -48.667 -12.001 -89.332 -36.001 -121.999s-56.167 -56.834 -96.5 -72.501s-85.166 -23.5 -134.499 -23.5h-89v-170h-96v680h96v-80h99c77.333 0 139.5 -17.333 186.5 -52s70.5 -88 70.5 -160zM441.999 384.002c0 49.333 -13.333 84.167 -40 104.5
s-66 30.5 -118 30.5h-98v-269h93c48.667 0 87.5 11 116.5 33s44.5 55.667 46.5 101z" />
    <glyph glyph-name="germandbls" unicode="&#xdf;" horiz-adv-x="592" 
d="M166 -230l-96 -0.00195312v703c0 67.333 20.333 120.5 61 159.5s95 58.5 163 58.5c64.667 0 117.667 -16.167 159 -48.5s62 -78.166 62 -137.499c0 -30.667 -7.5 -58.667 -22.5 -84s-35.167 -44.333 -60.5 -57c36 -12 65.833 -33.333 89.5 -64s35.5 -67 35.5 -109
c0 -63.333 -22.667 -111 -68 -143s-105.666 -48 -180.999 -48h-75v79h71c45.333 0 82.166 9.33301 110.499 28s42.5 47 42.5 85c0 38.667 -13.167 68.5 -39.5 89.5s-60.833 31.5 -103.5 31.5h-70v77h31c46.667 0 81.834 9.66699 105.501 29s35.5 46.333 35.5 81
s-11.333 61.334 -34 80.001s-51.334 28 -86.001 28c-40 0 -71.667 -12.5 -95 -37.5s-35 -57.833 -35 -98.5v-702z" />
    <glyph glyph-name="agrave" unicode="&#xe0;" horiz-adv-x="493" 
d="M243 412c-44 0 -90.667 -10.999 -140 -32.999l-27 76c17.333 12 43.5 22.167 78.5 30.5s63.833 12.5 86.5 12.5c36.667 0 70 -7.5 100 -22.5s53.5 -35.5 70.5 -61.5s25.5 -54.333 25.5 -85v-329h-67l-12 46c-18 -16 -40 -29.667 -66 -41s-51.333 -17 -76 -17
c-55.333 0 -97.333 13.833 -126 41.5s-43 64.5 -43 110.5c0 47.333 16.167 84.166 48.5 110.499s75.5 39.5 129.5 39.5h115c0 39.333 -7.16699 69.5 -21.5 90.5s-39.5 31.5 -75.5 31.5zM223 226.001c-28 0 -50 -8.33301 -66 -25s-24 -37 -24 -61c0 -20.667 7 -38.5 21 -53.5
s34 -22.5 60 -22.5c23.333 0 46 5.83301 68 17.5s41.667 27.167 59 46.5v98h-118zM295 606.001l-66 -17l-90 158h102z" />
    <glyph glyph-name="aacute" unicode="&#xe1;" horiz-adv-x="493" 
d="M243 412c-44 0 -90.667 -10.999 -140 -32.999l-27 76c17.333 12 43.5 22.167 78.5 30.5s63.833 12.5 86.5 12.5c36.667 0 70 -7.5 100 -22.5s53.5 -35.5 70.5 -61.5s25.5 -54.333 25.5 -85v-329h-67l-12 46c-18 -16 -40 -29.667 -66 -41s-51.333 -17 -76 -17
c-55.333 0 -97.333 13.833 -126 41.5s-43 64.5 -43 110.5c0 47.333 16.167 84.166 48.5 110.499s75.5 39.5 129.5 39.5h115c0 39.333 -7.16699 69.5 -21.5 90.5s-39.5 31.5 -75.5 31.5zM223 226.001c-28 0 -50 -8.33301 -66 -25s-24 -37 -24 -61c0 -20.667 7 -38.5 21 -53.5
s34 -22.5 60 -22.5c23.333 0 46 5.83301 68 17.5s41.667 27.167 59 46.5v98h-118zM331 747.001l-90 -158l-66 17l54 141h102z" />
    <glyph glyph-name="acircumflex" unicode="&#xe2;" horiz-adv-x="493" 
d="M243 412c-44 0 -90.667 -10.999 -140 -32.999l-27 76c17.333 12 43.5 22.167 78.5 30.5s63.833 12.5 86.5 12.5c36.667 0 70 -7.5 100 -22.5s53.5 -35.5 70.5 -61.5s25.5 -54.333 25.5 -85v-329h-67l-12 46c-18 -16 -40 -29.667 -66 -41s-51.333 -17 -76 -17
c-55.333 0 -97.333 13.833 -126 41.5s-43 64.5 -43 110.5c0 47.333 16.167 84.166 48.5 110.499s75.5 39.5 129.5 39.5h115c0 39.333 -7.16699 69.5 -21.5 90.5s-39.5 31.5 -75.5 31.5zM223 226.001c-28 0 -50 -8.33301 -66 -25s-24 -37 -24 -61c0 -20.667 7 -38.5 21 -53.5
s34 -22.5 60 -22.5c23.333 0 46 5.83301 68 17.5s41.667 27.167 59 46.5v98h-118zM312 589.001l-75 87l-75 -87l-87 10l128 148h66l129 -148z" />
    <glyph glyph-name="atilde" unicode="&#xe3;" horiz-adv-x="493" 
d="M243 412c-44 0 -90.667 -10.999 -140 -32.999l-27 76c17.333 12 43.5 22.167 78.5 30.5s63.833 12.5 86.5 12.5c36.667 0 70 -7.5 100 -22.5s53.5 -35.5 70.5 -61.5s25.5 -54.333 25.5 -85v-329h-67l-12 46c-18 -16 -40 -29.667 -66 -41s-51.333 -17 -76 -17
c-55.333 0 -97.333 13.833 -126 41.5s-43 64.5 -43 110.5c0 47.333 16.167 84.166 48.5 110.499s75.5 39.5 129.5 39.5h115c0 39.333 -7.16699 69.5 -21.5 90.5s-39.5 31.5 -75.5 31.5zM223 226.001c-28 0 -50 -8.33301 -66 -25s-24 -37 -24 -61c0 -20.667 7 -38.5 21 -53.5
s34 -22.5 60 -22.5c23.333 0 46 5.83301 68 17.5s41.667 27.167 59 46.5v98h-118zM296 670.001c8.66699 0 16.1689 3.33398 22.502 10.001s9.83301 15.667 10.5 27h63c0 -37.333 -8.83301 -64.333 -26.5 -81s-40.5 -25 -68.5 -25c-13.333 0 -24.333 2 -33 6
s-18.667 9.66699 -30 17c-8.66699 6.66699 -16.334 11.5 -23.001 14.5s-14.334 4.5 -23.001 4.5c-8 0 -15.5 -3.66699 -22.5 -11s-10.833 -16 -11.5 -26h-65c0 37.333 8.66699 64.166 26 80.499s40.333 24.5 69 24.5c14 0 25.5 -2 34.5 -6s19.167 -9.66699 30.5 -17
c10 -6 18.167 -10.5 24.5 -13.5s13.833 -4.5 22.5 -4.5z" />
    <glyph glyph-name="adieresis" unicode="&#xe4;" horiz-adv-x="493" 
d="M243 412c-44 0 -90.667 -10.999 -140 -32.999l-27 76c17.333 12 43.5 22.167 78.5 30.5s63.833 12.5 86.5 12.5c36.667 0 70 -7.5 100 -22.5s53.5 -35.5 70.5 -61.5s25.5 -54.333 25.5 -85v-329h-67l-12 46c-18 -16 -40 -29.667 -66 -41s-51.333 -17 -76 -17
c-55.333 0 -97.333 13.833 -126 41.5s-43 64.5 -43 110.5c0 47.333 16.167 84.166 48.5 110.499s75.5 39.5 129.5 39.5h115c0 39.333 -7.16699 69.5 -21.5 90.5s-39.5 31.5 -75.5 31.5zM223 226.001c-28 0 -50 -8.33301 -66 -25s-24 -37 -24 -61c0 -20.667 7 -38.5 21 -53.5
s34 -22.5 60 -22.5c23.333 0 46 5.83301 68 17.5s41.667 27.167 59 46.5v98h-118zM194 664.001c0 -14.667 -5.16699 -27.334 -15.5 -38.001s-23.166 -16 -38.499 -16c-14.667 0 -27.334 5.33301 -38.001 16s-16 23.334 -16 38.001s5.33301 27.334 16 38.001
s23.334 16 38.001 16c15.333 0 28.166 -5.33301 38.499 -16s15.5 -23.334 15.5 -38.001zM368 664.001c0 -14.667 -5.16699 -27.334 -15.5 -38.001s-23.166 -16 -38.499 -16c-14.667 0 -27.334 5.33301 -38.001 16s-16 23.334 -16 38.001s5.33301 27.334 16 38.001
s23.334 16 38.001 16c15.333 0 28.166 -5.33301 38.499 -16s15.5 -23.334 15.5 -38.001z" />
    <glyph glyph-name="aring" unicode="&#xe5;" horiz-adv-x="493" 
d="M243 412c-44 0 -90.667 -10.999 -140 -32.999l-27 76c17.333 12 43.5 22.167 78.5 30.5s63.833 12.5 86.5 12.5c36.667 0 70 -7.5 100 -22.5s53.5 -35.5 70.5 -61.5s25.5 -54.333 25.5 -85v-329h-67l-12 46c-18 -16 -40 -29.667 -66 -41s-51.333 -17 -76 -17
c-55.333 0 -97.333 13.833 -126 41.5s-43 64.5 -43 110.5c0 47.333 16.167 84.166 48.5 110.499s75.5 39.5 129.5 39.5h115c0 39.333 -7.16699 69.5 -21.5 90.5s-39.5 31.5 -75.5 31.5zM223 226.001c-28 0 -50 -8.33301 -66 -25s-24 -37 -24 -61c0 -20.667 7 -38.5 21 -53.5
s34 -22.5 60 -22.5c23.333 0 46 5.83301 68 17.5s41.667 27.167 59 46.5v98h-118zM140 683.001c0 26 9.66699 48 29 66s42.333 27 69 27s49.5 -9 68.5 -27s28.5 -40 28.5 -66c0 -25.333 -9.5 -46.5 -28.5 -63.5s-41.833 -25.5 -68.5 -25.5c-27.333 0 -50.5 8.5 -69.5 25.5
s-28.5 38.167 -28.5 63.5zM196 683.001c0 -10.667 4.16699 -20.167 12.5 -28.5s18.166 -12.5 29.499 -12.5s21 4.16699 29 12.5s12 17.833 12 28.5c0 12 -4 22 -12 30s-17.667 12 -29 12s-21.166 -4 -29.499 -12s-12.5 -18 -12.5 -30z" />
    <glyph glyph-name="ae" unicode="&#xe6;" horiz-adv-x="812" 
d="M438 221c4 -47.333 19.166 -84.667 45.499 -112s65.5 -41 117.5 -41c25.333 0 47.5 3.16699 66.5 9.5s45.5 17.5 79.5 33.5l30 -70c-58.667 -35.333 -117.334 -53 -176.001 -53c-90.667 0 -159 26.667 -205 80c-49.333 -53.333 -109.333 -80 -180 -80
c-55.333 0 -97.333 13.833 -126 41.5s-43 64.5 -43 110.5c0 47.333 16.167 84.166 48.5 110.499s75.5 39.5 129.5 39.5h115c0 38.667 -7.16699 68.667 -21.5 90s-39.5 32 -75.5 32c-44 0 -90.667 -11 -140 -33l-27 76c17.333 12 43.5 22.167 78.5 30.5
s63.833 12.5 86.5 12.5c32.667 0 62.834 -6.33301 90.501 -19s50.5 -29.667 68.5 -51c20.667 22.667 45.334 40 74.001 52s60.667 18 96 18c71.333 0 124.5 -24.167 159.5 -72.5s52.5 -110.166 52.5 -185.499v-19h-344zM566.999 415.999
c-36.667 0 -65.832 -11.5 -87.499 -34.5s-34.834 -54.833 -39.501 -95.5h249c-13.333 86.667 -54 130 -122 130zM356.001 135.999c-10 26.667 -16 56.666 -18 89.999h-115c-28 0 -50 -8.33301 -66 -25s-24 -37 -24 -61c0 -20.667 7 -38.5 21 -53.5s34 -22.5 60 -22.5
c34 0 61.833 6.33301 83.5 19s41.167 30.334 58.5 53.001z" />
    <glyph glyph-name="ccedilla" unicode="&#xe7;" horiz-adv-x="464" 
d="M301 -11l-11.999 -30.998c21.333 -5.33301 39.166 -16 53.499 -32s21.5 -33 21.5 -51c0 -30.667 -11.667 -54.334 -35 -71.001s-51.333 -25 -84 -25c-12.667 0 -27.334 2.16699 -44.001 6.5s-30 9.83301 -40 16.5l22 59c9.33301 -4 19.833 -7.83301 31.5 -11.5
s21.834 -5.5 30.501 -5.5c12 0 22.667 2.5 32 7.5s14 12.167 14 21.5c0 12 -8.33301 22.5 -25 31.5s-38 14.833 -64 17.5l27 68c-62 8.66699 -110.667 35.834 -146 81.501s-53 102.834 -53 171.501c0 50 10 94.333 30 133s48.5 68.667 85.5 90s80.167 32 129.5 32
c22 0 49.667 -4.5 83 -13.5s60 -20.167 80 -33.5l-28 -68c-27.333 11.333 -50.5 19.666 -69.5 24.999s-41.167 8 -66.5 8c-44 0 -79.167 -16.333 -105.5 -49s-39.833 -73.667 -40.5 -123c0 -52 12.667 -94.167 38 -126.5s60.333 -48.5 105 -48.5c27.333 0 51 2.66699 71 8
s41.667 13.666 65 24.999l29 -69c-16 -10.667 -36.5 -19.834 -61.5 -27.501s-49.5 -13.167 -73.5 -16.5z" />
    <glyph glyph-name="egrave" unicode="&#xe8;" horiz-adv-x="504" 
d="M262 498c70 0 122.834 -23.501 158.501 -70.501s53.5 -107.167 53.5 -180.5v-26h-344c4 -47.333 19.167 -84.666 45.5 -111.999s65.5 -41 117.5 -41c25.333 0 47.5 3.16699 66.5 9.5s45.5 17.5 79.5 33.5l30 -70c-58.667 -35.333 -117.334 -53 -176.001 -53
c-84.667 0 -149.667 23 -195 69s-68 108 -68 186c0 50 9.33301 94.333 28 133s45.5 68.667 80.5 90s76.167 32 123.5 32zM259.001 415.999c-36.667 0 -65.8311 -11.5 -87.498 -34.5s-34.834 -54.833 -39.501 -95.5h249c-12.667 86.667 -53.334 130 -122.001 130z
M317.004 605.999l-66 -17l-90 158h102z" />
    <glyph glyph-name="eacute" unicode="&#xe9;" horiz-adv-x="504" 
d="M262 498c70 0 122.834 -23.501 158.501 -70.501s53.5 -107.167 53.5 -180.5v-26h-344c4 -47.333 19.167 -84.666 45.5 -111.999s65.5 -41 117.5 -41c25.333 0 47.5 3.16699 66.5 9.5s45.5 17.5 79.5 33.5l30 -70c-58.667 -35.333 -117.334 -53 -176.001 -53
c-84.667 0 -149.667 23 -195 69s-68 108 -68 186c0 50 9.33301 94.333 28 133s45.5 68.667 80.5 90s76.167 32 123.5 32zM259.001 415.999c-36.667 0 -65.8311 -11.5 -87.498 -34.5s-34.834 -54.833 -39.501 -95.5h249c-12.667 86.667 -53.334 130 -122.001 130z
M353.004 746.999l-90 -158l-66 17l54 141h102z" />
    <glyph glyph-name="ecircumflex" unicode="&#xea;" horiz-adv-x="504" 
d="M262 498c70 0 122.834 -23.501 158.501 -70.501s53.5 -107.167 53.5 -180.5v-26h-344c4 -47.333 19.167 -84.666 45.5 -111.999s65.5 -41 117.5 -41c25.333 0 47.5 3.16699 66.5 9.5s45.5 17.5 79.5 33.5l30 -70c-58.667 -35.333 -117.334 -53 -176.001 -53
c-84.667 0 -149.667 23 -195 69s-68 108 -68 186c0 50 9.33301 94.333 28 133s45.5 68.667 80.5 90s76.167 32 123.5 32zM259.001 415.999c-36.667 0 -65.8311 -11.5 -87.498 -34.5s-34.834 -54.833 -39.501 -95.5h249c-12.667 86.667 -53.334 130 -122.001 130z
M334.004 588.999l-75 87l-75 -87l-87 10l128 148h66l129 -148z" />
    <glyph glyph-name="edieresis" unicode="&#xeb;" horiz-adv-x="504" 
d="M262 498c70 0 122.834 -23.501 158.501 -70.501s53.5 -107.167 53.5 -180.5v-26h-344c4 -47.333 19.167 -84.666 45.5 -111.999s65.5 -41 117.5 -41c25.333 0 47.5 3.16699 66.5 9.5s45.5 17.5 79.5 33.5l30 -70c-58.667 -35.333 -117.334 -53 -176.001 -53
c-84.667 0 -149.667 23 -195 69s-68 108 -68 186c0 50 9.33301 94.333 28 133s45.5 68.667 80.5 90s76.167 32 123.5 32zM259.001 415.999c-36.667 0 -65.8311 -11.5 -87.498 -34.5s-34.834 -54.833 -39.501 -95.5h249c-12.667 86.667 -53.334 130 -122.001 130z
M216.004 663.999c0 -14.667 -5.16699 -27.334 -15.5 -38.001s-23.166 -16 -38.499 -16c-14.667 0 -27.334 5.33301 -38.001 16s-16 23.334 -16 38.001s5.33301 27.334 16 38.001s23.334 16 38.001 16c15.333 0 28.166 -5.33301 38.499 -16s15.5 -23.334 15.5 -38.001z
M390.004 663.999c0 -14.667 -5.16699 -27.334 -15.5 -38.001s-23.166 -16 -38.499 -16c-14.667 0 -27.334 5.33301 -38.001 16s-16 23.334 -16 38.001s5.33301 27.334 16 38.001s23.334 16 38.001 16c15.333 0 28.166 -5.33301 38.499 -16s15.5 -23.334 15.5 -38.001z" />
    <glyph glyph-name="igrave" unicode="&#xec;" horiz-adv-x="217" 
d="M157 485v-485h-97v485h97zM166 606l-66 -17l-90 158h102z" />
    <glyph glyph-name="iacute" unicode="&#xed;" horiz-adv-x="217" 
d="M157 485v-485h-97v485h97zM200 747l-90 -158l-66 17l54 141h102z" />
    <glyph glyph-name="icircumflex" unicode="&#xee;" horiz-adv-x="217" 
d="M157 485v-485h-97v485h97zM184 589l-75 87l-75 -87l-87 10l128 148h66l129 -148z" />
    <glyph glyph-name="idieresis" unicode="&#xef;" horiz-adv-x="217" 
d="M157 485v-485h-97v485h97zM66 664c0 -14.667 -5.16699 -27.334 -15.5 -38.001s-23.166 -16 -38.499 -16c-14.667 0 -27.334 5.33301 -38.001 16s-16 23.334 -16 38.001s5.33301 27.334 16 38.001s23.334 16 38.001 16c15.333 0 28.166 -5.33301 38.499 -16
s15.5 -23.334 15.5 -38.001zM240 664c0 -14.667 -5.16699 -27.334 -15.5 -38.001s-23.166 -16 -38.499 -16c-14.667 0 -27.334 5.33301 -38.001 16s-16 23.334 -16 38.001s5.33301 27.334 16 38.001s23.334 16 38.001 16c15.333 0 28.166 -5.33301 38.499 -16
s15.5 -23.334 15.5 -38.001z" />
    <glyph glyph-name="eth" unicode="&#xf0;" horiz-adv-x="545" 
d="M515 251c0 -51.333 -9.33105 -96.833 -27.998 -136.5s-46.334 -70.834 -83.001 -93.501s-81.334 -34 -134.001 -34c-48.667 0 -91.167 10.667 -127.5 32s-64.166 51.333 -83.499 90s-29 83.334 -29 134.001c0 50 10 94.333 30 133s48.333 68.667 85 90s79.667 32 129 32
c24.667 0 51.667 -6 81 -18c-28.667 45.333 -68.334 86 -119.001 122l-125 -63l-34 64l86 43c-20 10.667 -45 22 -75 34l28 70c46.667 -16 91 -36.667 133 -62l109 54l33 -61l-75 -38c64.667 -49.333 114 -107.5 148 -174.5s51 -139.5 51 -217.5zM417.002 241
c0 44.667 -4.33398 85.667 -13.001 123c-16.667 16.667 -35.167 29.5 -55.5 38.5s-45.166 13.5 -74.499 13.5c-44 0 -79.167 -16.333 -105.5 -49s-39.833 -73.667 -40.5 -123c0 -52 12.667 -94.167 38 -126.5s60.333 -48.5 105 -48.5c44 0 79.167 16.333 105.5 49
s39.833 73.667 40.5 123z" />
    <glyph glyph-name="ntilde" unicode="&#xf1;" horiz-adv-x="541" 
d="M309 419c-22.667 0 -47.334 -7.16602 -74.001 -21.499s-53 -32.833 -79 -55.5v-342h-96v485h67l17 -64c26 23.333 55.333 42.5 88 57.5s65 22.5 97 22.5c52.667 0 91.834 -16.333 117.501 -49s38.5 -76.667 38.5 -132v-320h-96v311
c0 35.333 -5.83301 62.166 -17.5 80.499s-32.5 27.5 -62.5 27.5zM338 670.001c8.66699 0 16.1689 3.33398 22.502 10.001s9.83301 15.667 10.5 27h63c0 -37.333 -8.83301 -64.333 -26.5 -81s-40.5 -25 -68.5 -25c-13.333 0 -24.333 2 -33 6s-18.667 9.66699 -30 17
c-8.66699 6.66699 -16.334 11.5 -23.001 14.5s-14.334 4.5 -23.001 4.5c-8 0 -15.5 -3.66699 -22.5 -11s-10.833 -16 -11.5 -26h-65c0 37.333 8.66699 64.166 26 80.499s40.333 24.5 69 24.5c14 0 25.5 -2 34.5 -6s19.167 -9.66699 30.5 -17c10 -6 18.167 -10.5 24.5 -13.5
s13.833 -4.5 22.5 -4.5z" />
    <glyph glyph-name="ograve" unicode="&#xf2;" horiz-adv-x="545" 
d="M270 -13c-48.667 0 -91.168 10.667 -127.501 32s-64.166 51.333 -83.499 90s-29 83.334 -29 134.001c0 50 10 94.333 30 133s48.333 68.667 85 90s79.667 32 129 32c48.667 0 91.167 -10.667 127.5 -32s64.333 -51.333 84 -90s29.5 -83.334 29.5 -134.001
c0 -50 -10 -94.333 -30 -133s-48.5 -68.667 -85.5 -90s-80.167 -32 -129.5 -32zM416.999 241c0 52 -12.667 94.167 -38 126.5s-60.333 48.5 -105 48.5c-44 0 -79.167 -16.333 -105.5 -49s-39.833 -73.667 -40.5 -123c0 -52 12.667 -94.167 38 -126.5s60.333 -48.5 105 -48.5
c44 0 79.167 16.333 105.5 49s39.833 73.667 40.5 123zM328.999 606l-66 -17l-90 158h102z" />
    <glyph glyph-name="oacute" unicode="&#xf3;" horiz-adv-x="545" 
d="M270 -13c-48.667 0 -91.168 10.667 -127.501 32s-64.166 51.333 -83.499 90s-29 83.334 -29 134.001c0 50 10 94.333 30 133s48.333 68.667 85 90s79.667 32 129 32c48.667 0 91.167 -10.667 127.5 -32s64.333 -51.333 84 -90s29.5 -83.334 29.5 -134.001
c0 -50 -10 -94.333 -30 -133s-48.5 -68.667 -85.5 -90s-80.167 -32 -129.5 -32zM416.999 241c0 52 -12.667 94.167 -38 126.5s-60.333 48.5 -105 48.5c-44 0 -79.167 -16.333 -105.5 -49s-39.833 -73.667 -40.5 -123c0 -52 12.667 -94.167 38 -126.5s60.333 -48.5 105 -48.5
c44 0 79.167 16.333 105.5 49s39.833 73.667 40.5 123zM364.999 747l-90 -158l-66 17l54 141h102z" />
    <glyph glyph-name="ocircumflex" unicode="&#xf4;" horiz-adv-x="545" 
d="M270 -13c-48.667 0 -91.168 10.667 -127.501 32s-64.166 51.333 -83.499 90s-29 83.334 -29 134.001c0 50 10 94.333 30 133s48.333 68.667 85 90s79.667 32 129 32c48.667 0 91.167 -10.667 127.5 -32s64.333 -51.333 84 -90s29.5 -83.334 29.5 -134.001
c0 -50 -10 -94.333 -30 -133s-48.5 -68.667 -85.5 -90s-80.167 -32 -129.5 -32zM416.999 241c0 52 -12.667 94.167 -38 126.5s-60.333 48.5 -105 48.5c-44 0 -79.167 -16.333 -105.5 -49s-39.833 -73.667 -40.5 -123c0 -52 12.667 -94.167 38 -126.5s60.333 -48.5 105 -48.5
c44 0 79.167 16.333 105.5 49s39.833 73.667 40.5 123zM345.999 589l-75 87l-75 -87l-87 10l128 148h66l129 -148z" />
    <glyph glyph-name="otilde" unicode="&#xf5;" horiz-adv-x="545" 
d="M270 -13c-48.667 0 -91.168 10.667 -127.501 32s-64.166 51.333 -83.499 90s-29 83.334 -29 134.001c0 50 10 94.333 30 133s48.333 68.667 85 90s79.667 32 129 32c48.667 0 91.167 -10.667 127.5 -32s64.333 -51.333 84 -90s29.5 -83.334 29.5 -134.001
c0 -50 -10 -94.333 -30 -133s-48.5 -68.667 -85.5 -90s-80.167 -32 -129.5 -32zM416.999 241c0 52 -12.667 94.167 -38 126.5s-60.333 48.5 -105 48.5c-44 0 -79.167 -16.333 -105.5 -49s-39.833 -73.667 -40.5 -123c0 -52 12.667 -94.167 38 -126.5s60.333 -48.5 105 -48.5
c44 0 79.167 16.333 105.5 49s39.833 73.667 40.5 123zM329.999 670c8.66699 0 16.1689 3.33398 22.502 10.001s9.83301 15.667 10.5 27h63c0 -37.333 -8.83301 -64.333 -26.5 -81s-40.5 -25 -68.5 -25c-13.333 0 -24.333 2 -33 6s-18.667 9.66699 -30 17
c-8.66699 6.66699 -16.334 11.5 -23.001 14.5s-14.334 4.5 -23.001 4.5c-8 0 -15.5 -3.66699 -22.5 -11s-10.833 -16 -11.5 -26h-65c0 37.333 8.66699 64.166 26 80.499s40.333 24.5 69 24.5c14 0 25.5 -2 34.5 -6s19.167 -9.66699 30.5 -17c10 -6 18.167 -10.5 24.5 -13.5
s13.833 -4.5 22.5 -4.5z" />
    <glyph glyph-name="odieresis" unicode="&#xf6;" horiz-adv-x="545" 
d="M270 -13c-48.667 0 -91.168 10.667 -127.501 32s-64.166 51.333 -83.499 90s-29 83.334 -29 134.001c0 50 10 94.333 30 133s48.333 68.667 85 90s79.667 32 129 32c48.667 0 91.167 -10.667 127.5 -32s64.333 -51.333 84 -90s29.5 -83.334 29.5 -134.001
c0 -50 -10 -94.333 -30 -133s-48.5 -68.667 -85.5 -90s-80.167 -32 -129.5 -32zM416.999 241c0 52 -12.667 94.167 -38 126.5s-60.333 48.5 -105 48.5c-44 0 -79.167 -16.333 -105.5 -49s-39.833 -73.667 -40.5 -123c0 -52 12.667 -94.167 38 -126.5s60.333 -48.5 105 -48.5
c44 0 79.167 16.333 105.5 49s39.833 73.667 40.5 123zM227.999 664c0 -14.667 -5.16699 -27.334 -15.5 -38.001s-23.166 -16 -38.499 -16c-14.667 0 -27.334 5.33301 -38.001 16s-16 23.334 -16 38.001s5.33301 27.334 16 38.001s23.334 16 38.001 16
c15.333 0 28.166 -5.33301 38.499 -16s15.5 -23.334 15.5 -38.001zM401.999 664c0 -14.667 -5.16699 -27.334 -15.5 -38.001s-23.166 -16 -38.499 -16c-14.667 0 -27.334 5.33301 -38.001 16s-16 23.334 -16 38.001s5.33301 27.334 16 38.001s23.334 16 38.001 16
c15.333 0 28.166 -5.33301 38.499 -16s15.5 -23.334 15.5 -38.001z" />
    <glyph glyph-name="divide" unicode="&#xf7;" horiz-adv-x="503" 
d="M317 426c0 -18 -6.33301 -33.5 -19 -46.5s-28.334 -19.5 -47.001 -19.5s-34.5 6.5 -47.5 19.5s-19.5 28.5 -19.5 46.5c0 18.667 6.5 34.5 19.5 47.5s28.833 19.5 47.5 19.5s34.334 -6.5 47.001 -19.5s19 -28.833 19 -47.5zM30 311h434l9 -76h-434zM319 107
c0 -18 -6.5 -33.667 -19.5 -47s-28.833 -20 -47.5 -20s-34.5 6.66699 -47.5 20s-19.5 29 -19.5 47c0 18.667 6.5 34.5 19.5 47.5s28.833 19.5 47.5 19.5s34.5 -6.5 47.5 -19.5s19.5 -28.833 19.5 -47.5z" />
    <glyph glyph-name="oslash" unicode="&#xf8;" horiz-adv-x="559" 
d="M515 242c0 -50 -10.001 -94.333 -30.001 -133s-48.5 -68.667 -85.5 -90s-80.167 -32 -129.5 -32c-48.667 0 -91.167 10.667 -127.5 32s-64.166 51.333 -83.499 90s-29 83.334 -29 134.001c0 50 10 94.333 30 133s48.333 68.667 85 90s79.667 32 129 32
c48.667 0 91.167 -10.667 127.5 -32s64.333 -51.333 84 -90s29.5 -83.334 29.5 -134.001zM127.999 244c0 -53.333 13 -96 39 -128l156 292c-16 5.33301 -32.333 8 -49 8c-44 0 -79.167 -16.333 -105.5 -49s-39.833 -73.667 -40.5 -123zM416.999 241
c0 43.333 -8.66699 80.333 -26 111l-151 -280c10 -2 20.333 -3 31 -3c44 0 79.167 16.333 105.5 49s39.833 73.667 40.5 123z" />
    <glyph glyph-name="ugrave" unicode="&#xf9;" horiz-adv-x="541" 
d="M232 66c22.667 0 47.334 7.16602 74.001 21.499s53 32.833 79 55.5v342h96v-485h-67l-17 64c-26 -23.333 -55.333 -42.5 -88 -57.5s-65 -22.5 -97 -22.5c-52.667 0 -91.834 16.333 -117.501 49s-38.5 76.667 -38.5 132v320h96v-311
c0 -35.333 5.83301 -62.166 17.5 -80.499s32.5 -27.5 62.5 -27.5zM323 605.999l-66 -17l-90 158h102z" />
    <glyph glyph-name="uacute" unicode="&#xfa;" horiz-adv-x="541" 
d="M232 66c22.667 0 47.334 7.16602 74.001 21.499s53 32.833 79 55.5v342h96v-485h-67l-17 64c-26 -23.333 -55.333 -42.5 -88 -57.5s-65 -22.5 -97 -22.5c-52.667 0 -91.834 16.333 -117.501 49s-38.5 76.667 -38.5 132v320h96v-311
c0 -35.333 5.83301 -62.166 17.5 -80.499s32.5 -27.5 62.5 -27.5zM359 746.999l-90 -158l-66 17l54 141h102z" />
    <glyph glyph-name="ucircumflex" unicode="&#xfb;" horiz-adv-x="541" 
d="M232 66c22.667 0 47.334 7.16602 74.001 21.499s53 32.833 79 55.5v342h96v-485h-67l-17 64c-26 -23.333 -55.333 -42.5 -88 -57.5s-65 -22.5 -97 -22.5c-52.667 0 -91.834 16.333 -117.501 49s-38.5 76.667 -38.5 132v320h96v-311
c0 -35.333 5.83301 -62.166 17.5 -80.499s32.5 -27.5 62.5 -27.5zM340 588.999l-75 87l-75 -87l-87 10l128 148h66l129 -148z" />
    <glyph glyph-name="udieresis" unicode="&#xfc;" horiz-adv-x="541" 
d="M232 66c22.667 0 47.334 7.16602 74.001 21.499s53 32.833 79 55.5v342h96v-485h-67l-17 64c-26 -23.333 -55.333 -42.5 -88 -57.5s-65 -22.5 -97 -22.5c-52.667 0 -91.834 16.333 -117.501 49s-38.5 76.667 -38.5 132v320h96v-311
c0 -35.333 5.83301 -62.166 17.5 -80.499s32.5 -27.5 62.5 -27.5zM222 663.999c0 -14.667 -5.16699 -27.334 -15.5 -38.001s-23.166 -16 -38.499 -16c-14.667 0 -27.334 5.33301 -38.001 16s-16 23.334 -16 38.001s5.33301 27.334 16 38.001s23.334 16 38.001 16
c15.333 0 28.166 -5.33301 38.499 -16s15.5 -23.334 15.5 -38.001zM396 663.999c0 -14.667 -5.16699 -27.334 -15.5 -38.001s-23.166 -16 -38.499 -16c-14.667 0 -27.334 5.33301 -38.001 16s-16 23.334 -16 38.001s5.33301 27.334 16 38.001s23.334 16 38.001 16
c15.333 0 28.166 -5.33301 38.499 -16s15.5 -23.334 15.5 -38.001z" />
    <glyph glyph-name="yacute" unicode="&#xfd;" horiz-adv-x="473" 
d="M463 485l-182 -480v-235h-92v232l-179 467l92 34l134 -368l128 350h99zM322 747l-90 -158l-66 17l54 141h102z" />
    <glyph glyph-name="thorn" unicode="&#xfe;" horiz-adv-x="533" 
d="M503 239c0 -50 -9.99805 -93.999 -29.998 -131.999s-48.333 -67.5 -85 -88.5s-79 -31.5 -127 -31.5c-13.333 0 -28.833 2.33301 -46.5 7s-35.167 11.667 -52.5 21v-223l-96 -11v914l96 11v-238c18 9.33301 35.833 16.666 53.5 21.999s33.167 8 46.5 8
c49.333 0 92.166 -10.667 128.499 -32s64.166 -51.5 83.499 -90.5s29 -84.5 29 -136.5zM405.002 238.001c0 53.333 -12.501 96.333 -37.501 129s-60.167 49 -105.5 49c-39.333 0 -72.666 -11.667 -99.999 -35v-279c28 -22 61.333 -33 100 -33
c44.667 0 79.667 15.833 105 47.5s38 72.167 38 121.5z" />
    <glyph glyph-name="ydieresis" unicode="&#xff;" horiz-adv-x="473" 
d="M463 485l-182 -480v-235h-92v232l-179 467l92 34l134 -368l128 350h99zM185 664c0 -14.667 -5.16699 -27.334 -15.5 -38.001s-23.166 -16 -38.499 -16c-14.667 0 -27.334 5.33301 -38.001 16s-16 23.334 -16 38.001s5.33301 27.334 16 38.001s23.334 16 38.001 16
c15.333 0 28.166 -5.33301 38.499 -16s15.5 -23.334 15.5 -38.001zM359 664c0 -14.667 -5.16699 -27.334 -15.5 -38.001s-23.166 -16 -38.499 -16c-14.667 0 -27.334 5.33301 -38.001 16s-16 23.334 -16 38.001s5.33301 27.334 16 38.001s23.334 16 38.001 16
c15.333 0 28.166 -5.33301 38.499 -16s15.5 -23.334 15.5 -38.001z" />
    <glyph glyph-name="dotlessi" unicode="&#x131;" horiz-adv-x="217" 
d="M157 485v-485h-97v485h97z" />
    <glyph glyph-name="Lslash" unicode="&#x141;" horiz-adv-x="515" 
d="M55 200l-40 65l75 61v354h96v-277l111 90l40 -64l-151 -123v-231h307l12 -75h-415v228z" />
    <glyph glyph-name="lslash" unicode="&#x142;" horiz-adv-x="321" 
d="M209 454l72 60l40 -64l-112 -92v-358h-96v281l-73 -60l-40 65l113 92v317l96 11v-252z" />
    <glyph glyph-name="OE" unicode="&#x152;" horiz-adv-x="952" 
d="M500 10c-22.667 -7.33301 -46.833 -13.167 -72.5 -17.5s-49.167 -6.5 -70.5 -6.5c-67.333 0 -124.833 15.5 -172.5 46.5s-83.667 73 -108 126s-36.5 112.167 -36.5 177.5c0 68 13.167 129.167 39.5 183.5s64 97 113 128s105.833 46.5 170.5 46.5c18 0 40 -2 66 -6
s49.667 -10 71 -18v10h383l13 -74h-300v-223h231l13 -74h-244v-234h323l13 -75h-432v10zM500.001 96.999l0.000976562 489c-27.333 9.33301 -50.333 16 -69 20s-42 6 -70 6c-41.333 0 -78.833 -11.5 -112.5 -34.5s-60.167 -55.5 -79.5 -97.5s-29 -89.667 -29 -143
c0 -49.333 8.5 -94.5 25.5 -135.5s41.667 -73.5 74 -97.5s70.166 -36 113.499 -36c53.333 0 102.333 9.66699 147 29z" />
    <glyph glyph-name="oe" unicode="&#x153;" horiz-adv-x="811" 
d="M437 221c4 -47.333 19.168 -84.6689 45.501 -112.002s65.5 -41 117.5 -41c25.333 0 47.5 3.16699 66.5 9.5s45.5 17.5 79.5 33.5l30 -70c-58.667 -35.333 -117.334 -53 -176.001 -53c-66 0 -121 14.667 -165 44c-20 -13.333 -46.667 -24.166 -80 -32.499
s-61.333 -12.5 -84 -12.5c-48.667 0 -91.167 10.667 -127.5 32s-64.333 51.333 -84 90s-29.5 83.334 -29.5 134.001c0 50 10 94.333 30 133s48.5 68.667 85.5 90s80.167 32 129.5 32c20.667 0 46.5 -4 77.5 -12s56.833 -18 77.5 -30c38.667 28 85 42 139 42
c70 0 122.833 -23.5 158.5 -70.5s53.5 -107.167 53.5 -180.5v-26h-344zM271.001 68.9971c37.333 0 73.333 6.66699 108 20c-28 42 -42 93.333 -42 154c0 58.667 13 110 39 154c-34.667 12.667 -68.667 19 -102 19c-44 0 -79.167 -16.333 -105.5 -49
s-39.833 -73.667 -40.5 -123c0 -52 12.667 -94.167 38 -126.5s60.333 -48.5 105 -48.5zM566.001 415.997c-36.667 0 -65.832 -11.5 -87.499 -34.5s-34.834 -54.833 -39.501 -95.5h249c-13.333 86.667 -54 130 -122 130z" />
    <glyph glyph-name="Scaron" unicode="&#x160;" horiz-adv-x="518" 
d="M188 897l75 -87l75 87l87 -10l-128 -148h-66l-129 148zM243 -13c-29.333 0 -65.166 5.33105 -107.499 15.998s-70.166 22 -83.499 34l22 76c21.333 -11.333 47.666 -21.333 78.999 -30s61 -13 89 -13c47.333 0 84 8.83301 110 26.5s39 41.5 39 71.5
c0 21.333 -6.5 40.166 -19.5 56.499s-31.5 31.333 -55.5 45s-57.333 29.834 -100 48.501c-42 18.667 -75.5 36.834 -100.5 54.501s-43.833 38.334 -56.5 62.001s-19 52.167 -19 85.5s9 63.333 27 90s43.833 47.667 77.5 63s73.167 23 118.5 23
c31.333 0 62.833 -4.33301 94.5 -13s60.167 -19.334 85.5 -32.001l-32 -76c-23.333 11.333 -45.5 20.166 -66.5 26.499s-45.833 9.5 -74.5 9.5c-40 0 -72.333 -7.66699 -97 -23s-37 -37.333 -37 -66c0 -22 6.33301 -41.167 19 -57.5s30.667 -31.166 54 -44.499
s57.666 -30.333 102.999 -51c60.667 -27.333 105.167 -55.666 133.5 -84.999s42.5 -67.333 42.5 -114c0 -36 -9.66699 -67.833 -29 -95.5s-47.333 -49.167 -84 -64.5s-80.667 -23 -132 -23z" />
    <glyph glyph-name="scaron" unicode="&#x161;" horiz-adv-x="421" 
d="M194 -13c-23.333 0 -51.1689 3.99609 -83.502 11.9961s-57.833 18.667 -76.5 32l30 67c45.333 -22 88.666 -33 129.999 -33c32 0 57.5 5.66699 76.5 17s28.5 26.333 28.5 45c0 33.333 -36 61.333 -108 84c-106 34.667 -159 83.334 -159 146.001
c0 44 16.5 78.5 49.5 103.5s77.833 37.5 134.5 37.5c22.667 0 49.5 -4.33301 80.5 -13s56.167 -19.667 75.5 -33l-30 -65c-23.333 10.667 -44.666 18.834 -63.999 24.501s-40.666 8.5 -63.999 8.5c-25.333 0 -46.166 -5.83301 -62.499 -17.5s-24.5 -26.167 -24.5 -43.5
c0.666992 -13.333 9.5 -25.666 26.5 -36.999s41.5 -22.333 73.5 -33c109.333 -39.333 164 -91.666 164 -156.999c0 -46 -17 -81.667 -51 -107s-82.667 -38 -146 -38zM139.997 746.996l75 -87l75 87l87 -10l-128 -148h-66l-129 148z" />
    <glyph glyph-name="Ydieresis" unicode="&#x178;" horiz-adv-x="579" 
d="M246 814c0 -14.667 -5.16699 -27.334 -15.5 -38.001s-23.166 -16 -38.499 -16c-14.667 0 -27.334 5.33301 -38.001 16s-16 23.334 -16 38.001s5.33301 27.334 16 38.001s23.334 16 38.001 16c15.333 0 28.166 -5.33301 38.499 -16s15.5 -23.334 15.5 -38.001zM420 814
c0 -14.667 -5.16699 -27.334 -15.5 -38.001s-23.166 -16 -38.499 -16c-14.667 0 -27.334 5.33301 -38.001 16s-16 23.334 -16 38.001s5.33301 27.334 16 38.001s23.334 16 38.001 16c15.333 0 28.166 -5.33301 38.499 -16s15.5 -23.334 15.5 -38.001zM332 271l-1 -271h-96
v270l-225 393l93 34l180 -331l184 314h102z" />
    <glyph glyph-name="Zcaron" unicode="&#x17d;" horiz-adv-x="564" 
d="M234 897l75 -87l75 87l87 -10l-128 -148h-66l-129 148zM125 75h406l10 -75h-510l-11 75l415 529h-374l-13 76h486l10 -76z" />
    <glyph glyph-name="zcaron" unicode="&#x17e;" horiz-adv-x="434" 
d="M38 485h371l5 -53l-276 -356h268l10 -76h-386l-12 50l272 357h-231zM150 747l75 -87l75 87l87 -10l-128 -148h-66l-129 148z" />
    <glyph glyph-name="florin" unicode="&#x192;" horiz-adv-x="374" 
d="M66 401l-1.00098 74.001h74v67c0 48.667 13.667 87.5 41 116.5s65 43.5 113 43.5c14 0 28.833 -2.16699 44.5 -6.5s27.834 -9.5 36.501 -15.5l-24 -74c-19.333 7.33301 -35.333 11 -48 11c-22.667 0 -39.5 -7.5 -50.5 -22.5s-16.5 -35.5 -16.5 -61.5v-58h90l31 -74h-121
v-337c0 -48.667 -13.5 -87.167 -40.5 -115.5s-64.167 -42.5 -111.5 -42.5c-14 0 -29.167 2.16699 -45.5 6.5s-28.833 9.16602 -37.5 14.499l24 73c19.333 -7.33301 35.333 -11 48 -11c44.667 0 67 28 67 84v328h-73z" />
    <glyph glyph-name="circumflex" unicode="&#x2c6;" horiz-adv-x="343" 
d="M247 589l-75 87l-75 -87l-87 10l128 148h66l129 -148z" />
    <glyph glyph-name="caron" unicode="&#x2c7;" horiz-adv-x="343" 
d="M96 747l75 -87l75 87l87 -10l-128 -148h-66l-129 148z" />
    <glyph glyph-name="breve" unicode="&#x2d8;" horiz-adv-x="297" 
d="M148 665c22.667 0 40.332 7.83301 52.999 23.5s19 33.5 19 53.5h67c0 -41.333 -11.833 -76 -35.5 -104s-58.167 -42.333 -103.5 -43c-45.333 0.666992 -79.666 15 -102.999 43s-35 62.667 -35 104h67c0 -20 6.16699 -37.833 18.5 -53.5s29.833 -23.5 52.5 -23.5z" />
    <glyph glyph-name="dotaccent" unicode="&#x2d9;" horiz-adv-x="140" 
d="M130 666c0 -16.667 -5.66699 -30.834 -17 -42.501s-25.333 -17.5 -42 -17.5s-31 5.83301 -43 17.5s-18 25.834 -18 42.501s6 31 18 43s26.333 18 43 18s30.667 -6 42 -18s17 -26.333 17 -43z" />
    <glyph glyph-name="ring" unicode="&#x2da;" horiz-adv-x="215" 
d="M10 683c0 26 9.66699 48 29 66s42.333 27 69 27s49.5 -9 68.5 -27s28.5 -40 28.5 -66c0 -25.333 -9.5 -46.5 -28.5 -63.5s-41.833 -25.5 -68.5 -25.5c-27.333 0 -50.5 8.5 -69.5 25.5s-28.5 38.167 -28.5 63.5zM66 683c0 -10.667 4.16699 -20.167 12.5 -28.5
s18.166 -12.5 29.499 -12.5s21 4.16699 29 12.5s12 17.833 12 28.5c0 12 -4 22 -12 30s-17.667 12 -29 12s-21.166 -4 -29.499 -12s-12.5 -18 -12.5 -30z" />
    <glyph glyph-name="ogonek" unicode="&#x2db;" horiz-adv-x="221" 
d="M10 -103c0 17.333 4.66699 36.501 14 57.501s20.333 37.5 33 49.5h93c-14 -10.667 -27.167 -26.334 -39.5 -47.001s-18.5 -38 -18.5 -52c0 -13.333 3.66699 -23.5 11 -30.5s17.333 -10.5 30 -10.5c16 0 32 6.33301 48 19l30 -59c-24.667 -20.667 -55 -31 -91 -31
c-32 0 -58.333 9.83301 -79 29.5s-31 44.5 -31 74.5z" />
    <glyph glyph-name="tilde" unicode="&#x2dc;" horiz-adv-x="323" 
d="M217 670c8.66699 0 16.1689 3.33398 22.502 10.001s9.83301 15.667 10.5 27h63c0 -37.333 -8.83301 -64.333 -26.5 -81s-40.5 -25 -68.5 -25c-13.333 0 -24.333 2 -33 6s-18.667 9.66699 -30 17c-8.66699 6.66699 -16.334 11.5 -23.001 14.5s-14.334 4.5 -23.001 4.5
c-8 0 -15.5 -3.66699 -22.5 -11s-10.833 -16 -11.5 -26h-65c0 37.333 8.66699 64.166 26 80.499s40.333 24.5 69 24.5c14 0 25.5 -2 34.5 -6s19.167 -9.66699 30.5 -17c10 -6 18.167 -10.5 24.5 -13.5s13.833 -4.5 22.5 -4.5z" />
    <glyph glyph-name="hungarumlaut" unicode="&#x2dd;" horiz-adv-x="342" 
d="M166 747l-90 -158l-66 17l54 141h102zM332 747l-90 -158l-66 17l54 141h102z" />
    <glyph glyph-name="endash" unicode="&#x2013;" horiz-adv-x="440" 
d="M30 311h371l9 -76h-371z" />
    <glyph glyph-name="emdash" unicode="&#x2014;" horiz-adv-x="541" 
d="M30 311h473l8 -76h-472z" />
    <glyph glyph-name="quoteleft" unicode="&#x2018;" horiz-adv-x="185" 
d="M151 531c0 -16 -5.99902 -30.1689 -17.999 -42.502s-26 -18.5 -42 -18.5c-17.333 0 -31.833 6.83301 -43.5 20.5s-17.5 30.834 -17.5 51.501c0 34 10.667 68.333 32 103s47.666 60.334 78.999 77.001l24 -46c-20 -15.333 -35 -28.833 -45 -40.5s-16 -26.5 -18 -44.5
c12.667 -0.666992 24 -7.16699 34 -19.5s15 -25.833 15 -40.5z" />
    <glyph glyph-name="quoteright" unicode="&#x2019;" horiz-adv-x="185" 
d="M32 661c0 14.667 6.16699 28.502 18.5 41.502s26.5 19.5 42.5 19.5c16.667 0 31.167 -6.83301 43.5 -20.5s18.5 -30.834 18.5 -51.501c0 -34 -10.833 -68.333 -32.5 -103s-48.167 -60.334 -79.5 -77.001l-23 45c18.667 14.667 33 28.167 43 40.5s16 27.5 18 45.5
c-12 0.666992 -23.167 7.16699 -33.5 19.5s-15.5 25.833 -15.5 40.5z" />
    <glyph glyph-name="quotesinglbase" unicode="&#x201a;" horiz-adv-x="185" 
d="M32 60c0 16 6.16699 30 18.5 42s26.5 18 42.5 18c17.333 0 32 -6.66699 44 -20s18 -30.666 18 -51.999c0 -33.333 -10.833 -67.333 -32.5 -102s-48.167 -60.334 -79.5 -77.001l-23 45c18.667 14.667 33 28.167 43 40.5s16 27.5 18 45.5
c-12 0.666992 -23.167 7.16699 -33.5 19.5s-15.5 25.833 -15.5 40.5z" />
    <glyph glyph-name="quotedblleft" unicode="&#x201c;" horiz-adv-x="351" 
d="M151 531c0 -16 -5.99902 -30.1689 -17.999 -42.502s-26 -18.5 -42 -18.5c-17.333 0 -31.833 6.83301 -43.5 20.5s-17.5 30.834 -17.5 51.501c0 34 10.667 68.333 32 103s47.666 60.334 78.999 77.001l24 -46c-20 -15.333 -35 -28.833 -45 -40.5s-16 -26.5 -18 -44.5
c12.667 -0.666992 24 -7.16699 34 -19.5s15 -25.833 15 -40.5zM318.001 530.998c0 -15.333 -6.16504 -29.334 -18.498 -42.001s-26.833 -19 -43.5 -19s-30.834 6.83301 -42.501 20.5s-17.5 30.834 -17.5 51.501c0 34 10.667 68.333 32 103s47.666 60.334 78.999 77.001
l24 -46c-19.333 -14.667 -34 -28 -44 -40s-16 -27 -18 -45c12 -0.666992 23.167 -7.33398 33.5 -20.001s15.5 -26 15.5 -40z" />
    <glyph glyph-name="quotedblright" unicode="&#x201d;" horiz-adv-x="350" 
d="M32 661c0 14.667 6.16699 28.502 18.5 41.502s26.5 19.5 42.5 19.5c16.667 0 31.167 -6.83301 43.5 -20.5s18.5 -30.834 18.5 -51.501c0 -34 -10.833 -68.333 -32.5 -103s-48.167 -60.334 -79.5 -77.001l-23 45c18.667 14.667 33 28.167 43 40.5s16 27.5 18 45.5
c-12 0.666992 -23.167 7.16699 -33.5 19.5s-15.5 25.833 -15.5 40.5zM198 661.002c0 14.667 6.16602 28.5 18.499 41.5s26.5 19.5 42.5 19.5c16.667 0 31 -6.66699 43 -20s18 -30.666 18 -51.999c0 -34 -10.667 -68.333 -32 -103s-47.666 -60.334 -78.999 -77.001l-24 45
c18.667 14 33 27.333 43 40s16.667 28 20 46c-12.667 0.666992 -24.167 7.16699 -34.5 19.5s-15.5 25.833 -15.5 40.5z" />
    <glyph glyph-name="quotedblbase" unicode="&#x201e;" horiz-adv-x="350" 
d="M32 60c0 16 6.16699 30 18.5 42s26.5 18 42.5 18c17.333 0 32 -6.66699 44 -20s18 -30.666 18 -51.999c0 -33.333 -10.833 -67.333 -32.5 -102s-48.167 -60.334 -79.5 -77.001l-23 46c19.333 14.667 33.833 28 43.5 40s15.5 27 17.5 45
c-12 0.666992 -23.167 7.16699 -33.5 19.5s-15.5 25.833 -15.5 40.5zM198 60c0 16 6.16602 29.999 18.499 41.999s26.5 18 42.5 18c17.333 0 31.833 -6.66699 43.5 -20s17.5 -30.666 17.5 -51.999c0 -34 -10.667 -68.167 -32 -102.5s-47.666 -59.833 -78.999 -76.5l-24 45
c18.667 14 33 27.333 43 40s16.667 28 20 46c-12.667 0.666992 -24.167 7.16699 -34.5 19.5s-15.5 25.833 -15.5 40.5z" />
    <glyph glyph-name="dagger" unicode="&#x2020;" horiz-adv-x="410" 
d="M155 625v158l103 -3v-155h103l19 -85h-122l-11 -544l-82 4l-10 540h-106l-19 85h125z" />
    <glyph glyph-name="daggerdbl" unicode="&#x2021;" horiz-adv-x="417" 
d="M258 170l5 -169l-110 -7l5 176h-109l-19 85h125l3 263h-109l-19 86h130l-5 179l110 -3l-5 -176h109l18 -86h-125l-2 -263h109l18 -85h-129z" />
    <glyph glyph-name="bullet" unicode="&#x2022;" horiz-adv-x="250" 
d="M220 328c0 -26 -9.16699 -48.167 -27.5 -66.5s-40.833 -27.5 -67.5 -27.5s-49.167 9.16699 -67.5 27.5s-27.5 40.5 -27.5 66.5s9.16699 48.333 27.5 67s40.833 28 67.5 28s49.167 -9.33301 67.5 -28s27.5 -41 27.5 -67z" />
    <glyph glyph-name="ellipsis" unicode="&#x2026;" horiz-adv-x="489" 
d="M142 55c0 -15.333 -5.33301 -28.333 -16 -39s-24 -16 -40 -16c-15.333 -0 -28.5 5.33301 -39.5 16s-16.5 23.667 -16.5 39c0 16 5.5 29.5 16.5 40.5s24.167 16.5 39.5 16.5c16 0 29.333 -5.5 40 -16.5s16 -24.5 16 -40.5zM302 55c0 -15.333 -5.5 -28.333 -16.5 -39
s-23.833 -16 -38.5 -16c-16 -0 -29.5 5.33301 -40.5 16s-16.5 23.667 -16.5 39c0 16 5.5 29.5 16.5 40.5s24.5 16.5 40.5 16.5c14.667 0 27.5 -5.5 38.5 -16.5s16.5 -24.5 16.5 -40.5zM459 55c0 -15.333 -5.5 -28.333 -16.5 -39s-24.167 -16 -39.5 -16
s-28.5 5.33301 -39.5 16s-16.5 23.667 -16.5 39c0 16 5.5 29.5 16.5 40.5s24.167 16.5 39.5 16.5s28.5 -5.5 39.5 -16.5s16.5 -24.5 16.5 -40.5z" />
    <glyph glyph-name="perthousand" unicode="&#x2030;" horiz-adv-x="1258" 
d="M243 0l303 710l95 -4l-303 -710zM30 532c0 33.333 7.33203 62.999 21.999 88.999s34.334 46 59.001 60s51.334 21 80.001 21c46 0 84.333 -15.167 115 -45.5s46 -71.833 46 -124.5c0 -33.333 -7.33301 -62.833 -22 -88.5s-34.334 -45.5 -59.001 -59.5
s-51.334 -21 -80.001 -21c-30 0 -57.167 6.66699 -81.5 20s-43.666 32.833 -57.999 58.5s-21.5 55.834 -21.5 90.501zM265.999 531.999c0 32 -7.16797 56.166 -21.501 72.499s-32.166 24.5 -53.499 24.5c-20.667 0 -38.334 -8.16699 -53.001 -24.5s-22 -40.166 -22 -71.499
c0 -32.667 7 -57.167 21 -73.5s32 -24.5 54 -24.5c20.667 0 38.334 8.16699 53.001 24.5s22 40.5 22 72.5zM534.998 168.998c0 33.333 7.33398 62.833 22.001 88.5s34.167 45.5 58.5 59.5s51.166 21 80.499 21c46 0 84 -15 114 -45s45 -71.333 45 -124
c0 -33.333 -7.33301 -62.833 -22 -88.5s-34.167 -45.5 -58.5 -59.5s-50.5 -21 -78.5 -21c-46 0 -84.333 15.167 -115 45.5s-46 71.5 -46 123.5zM905.999 168.998c0 33.333 7.33496 62.834 22.002 88.501s34.167 45.5 58.5 59.5s51.166 21 80.499 21
c30 0 57.167 -6.66699 81.5 -20s43.666 -32.833 57.999 -58.5s21.5 -55.834 21.5 -90.501c0 -33.333 -7.33301 -62.833 -22 -88.5s-34.334 -45.5 -59.001 -59.5s-51 -21 -79 -21c-47.333 0 -86.166 15 -116.499 45s-45.5 71.333 -45.5 124zM770.001 168.999
c0 30.667 -7.16699 54.5 -21.5 71.5s-31.833 25.5 -52.5 25.5s-38.5 -8.16699 -53.5 -24.5s-22.5 -40.166 -22.5 -71.499c0 -32.667 7.16699 -57.334 21.5 -74.001s32.5 -25 54.5 -25c20 0 37.333 8.33301 52 25s22 41 22 73zM1142 168.999
c0 30.667 -7.16797 54.499 -21.501 71.499s-32.166 25.5 -53.499 25.5c-20 0 -37.667 -8.16699 -53 -24.5s-23 -40.166 -23 -71.499c0 -32 7.33301 -56.5 22 -73.5s33 -25.5 55 -25.5c20 0 37.333 8.33301 52 25s22 41 22 73z" />
    <glyph glyph-name="guilsinglleft" unicode="&#x2039;" horiz-adv-x="222" 
d="M180 83l-150 138v48l150 139l22 -69l-95 -94l95 -95z" />
    <glyph glyph-name="guilsinglright" unicode="&#x203a;" horiz-adv-x="222" 
d="M42 408l150 -139v-48l-150 -138l-22 67l95 95l-95 94z" />
    <glyph glyph-name="fraction" unicode="&#x2044;" horiz-adv-x="419" 
d="M10 0l303 710l96 -4l-304 -710z" />
    <glyph glyph-name="Euro" unicode="&#x20ac;" horiz-adv-x="603" 
d="M401 -14c-78 0 -142.668 20.499 -194.001 61.499s-86.666 95.833 -105.999 164.5h-90l-11 73h87c-2 17.333 -3 34.333 -3 51c0 19.333 1 38 3 56h-76l-11 72h102c21.333 70 58.5 125.833 111.5 167.5s117.5 62.5 193.5 62.5c24 0 53.333 -3.5 88 -10.5
s63 -17.167 85 -30.5l-30 -69c-30 10.667 -54.333 18 -73 22s-42.667 6 -72 6c-44 0 -83.667 -13.167 -119 -39.5s-62 -62.5 -80 -108.5h232l9 -72h-259c-2.66699 -16 -4 -34.333 -4 -55c0 -17.333 1 -34.666 3 -51.999h251l9 -73h-242c16.667 -44 41.5 -79 74.5 -105
s72.167 -39 117.5 -39c56 0 105.667 10 149 30l37 -72c-22 -11.333 -50.667 -20.833 -86 -28.5s-67.333 -11.5 -96 -11.5z" />
    <glyph glyph-name="trademark" unicode="&#x2122;" horiz-adv-x="742" 
d="M10 680h302l8 -58h-122v-317h-72v317h-116v58zM630 519l-81 -111l-20 -4l-91 120v-219h-73v375h33l140 -180l131 180h33v-375h-72v214z" />
    <glyph glyph-name="minus" unicode="&#x2212;" horiz-adv-x="478" 
d="M30 311h407l11 -76h-410z" />
    <glyph glyph-name="fi" unicode="&#xfb01;" horiz-adv-x="541" 
d="M89 406h-73.001l-1 73h74v63c0 48.667 13.667 87.5 41 116.5s65 43.5 113 43.5c14 0 28.833 -2.16699 44.5 -6.5s27.834 -9.5 36.501 -15.5l-24 -74c-19.333 7.33301 -35.333 11 -48 11c-22.667 0 -39.5 -7.5 -50.5 -22.5s-16.5 -35.5 -16.5 -61.5v-54h90l31 -73h-121
v-636h-96v636zM491.999 632c0 -16.667 -6 -30.834 -18 -42.501s-26.333 -17.5 -43 -17.5s-30.667 5.83301 -42 17.5s-17 25.834 -17 42.501s5.66699 30.834 17 42.501s25.333 17.5 42 17.5s31 -5.83301 43 -17.5s18 -25.834 18 -42.501zM480.999 485v-485h-97v485h97z" />
    <glyph glyph-name="fl" unicode="&#xfb02;" horiz-adv-x="560" 
d="M89 406h-73.001l-1 73h74v63c0 48.667 13.667 87.5 41 116.5s65 43.5 113 43.5c14 0 28.833 -2.16699 44.5 -6.5s27.834 -9.5 36.501 -15.5l-24 -74c-19.333 7.33301 -35.333 11 -48 11c-22.667 0 -39.5 -7.5 -50.5 -22.5s-16.5 -35.5 -16.5 -61.5v-54h90l31 -73h-121
v-636h-96v636zM489.999 706v-706h-96v695z" />
  </font>
</defs>
</svg>
